<svg xmlns="http://www.w3.org/2000/svg" xmlns:xlink="http://www.w3.org/1999/xlink" viewBox="0 0 1317.32 585.75"><defs><style>.cls-1{fill:none;}.cls-2{clip-path:url(#clip-path);}.cls-3{fill:#f6c62b;}.cls-4,.cls-5{fill:#231f20;stroke:#fff;stroke-miterlimit:10;}.cls-4{stroke-width:18.26px;}.cls-5{stroke-width:12.17px;}.cls-6{fill:#fff;}</style><clipPath id="clip-path" transform="translate(0 -11.24)"><rect class="cls-1" x="296.92" y="1.44" width="774.9" height="389.12" transform="translate(-0.72 2.54) rotate(-0.21)"/></clipPath></defs><title>pulse</title><g id="Layer_2" data-name="Layer 2"><g id="Layer_1-2" data-name="Layer 1"><g class="cls-2"><path class="cls-3" d="M1317.32,592.09S1045.68,278.4,1045.52,278.2c-.49-.57-.52-.81-1-1.15s-.6-.27-1-.53a4.65,4.65,0,0,1-1.2-1.12c-1.48-1.72-1.43-1.53-1.77-2a10.25,10.25,0,0,1-.89-1.87c-.86-2.05-.78-2.29-1.38-3.51a11.7,11.7,0,0,0-1.45-2.34c-.85-1-1.27-1.53-1.92-1.75a3.7,3.7,0,0,1-1.82-.83L1033,263a14.26,14.26,0,0,1,1.29-1.27c2.88-2.58,4.43-3.3,6.26-5.92,1-1.48.64-1.41,2.63-4.85a69.75,69.75,0,0,1,3.8-6c1.86-2.62,2.06-2.51,3.42-4.61a23.07,23.07,0,0,0,2.72-5.18c.83-2.36.24-2.25,1.07-4.36.94-2.4,1.78-2.73,2.62-5.34.38-1.16.28-1.32.78-2.74a13,13,0,0,1,1.56-3.56,9.64,9.64,0,0,0,.86-1.51c.35-.69.42-1,.29-1.24a3.08,3.08,0,0,0-.85-.75c-.48-.36-.62-.41-.7-.61s0-.45.14-.84a5.08,5.08,0,0,1,.73-1.28c1-1.14,1.18-3.64,1.25-4.51s0-.41-.11-4.44a18,18,0,0,1,.09-2.38,15.2,15.2,0,0,1,.33-2c.26-1.11.4-1.11.68-2.27a16.68,16.68,0,0,0,.38-2.14c0-.17,0-.65.15-1.57a1.35,1.35,0,0,0-.11-.79,1.29,1.29,0,0,0-.41-.5,1.39,1.39,0,0,0-.89-.36,1.29,1.29,0,0,0-.9.45,1.48,1.48,0,0,0-.39.87s0,0-.41,1.79a13.41,13.41,0,0,1-.76,2c-.31.75-.68,1.53-.87,1.9s-.34.55-.37.73a.28.28,0,0,1-.09.2.55.55,0,0,1-.3.11.83.83,0,0,1-.56-.24c-.32-.32-.1-.74,0-1.52a11.17,11.17,0,0,0,0-1.17c0-1.39,0-2,0-3.41,0-2.9-.32-2.13-.21-3.55,0-.64.16-1.37-.4-1.87a2.41,2.41,0,0,0-1.1-.51,2.19,2.19,0,0,0-1.23.05,1.35,1.35,0,0,0-.63.49c-.22.3-.18.55-.19,1.45,0,.27,0,.54,0,.81,0,1.28,0,1.42,0,3.15,0,1.9.08,3.19,0,3.87a2.24,2.24,0,0,0-.07.89,1.2,1.2,0,0,1,0,.48c0,.15-.06.29-.2.35a.49.49,0,0,1-.41-.06c-.23-.15-.2-.46-.18-.75,0,0,0-.55,0-1.84,0-.44,0-.34-.08-1s0-1.08,0-1.66c0-1.2-.07-1.09-.06-2.1,0-.75.06-.81.11-2.38.09-2.42-.09-.32-.1-1.59a1,1,0,0,0-.12-.55,1.77,1.77,0,0,0-.91-.62,2.16,2.16,0,0,0-1.45-.11c-.39.15-.55.44-.78.87a3.77,3.77,0,0,0-.41,1.35,11,11,0,0,0-.17,1.33c-.1,1.28-.2,1.38-.29,2.34a11.46,11.46,0,0,0,0,3,20.12,20.12,0,0,0,.7,2.7c.09.31.14.46.14.46.1.2.18.3.13.39a.35.35,0,0,1-.3.12c-.32,0-.53-.57-.64-.86a13.43,13.43,0,0,1-.84-2.81c-.08-.76,0-.45,0-2.4,0-.42-.13-1.19-.38-2.74a1.62,1.62,0,0,0-.37-.87,2.24,2.24,0,0,0-1.2-.66,2.21,2.21,0,0,0-1.5.21c-.25.17-.42.43-.56,1.31a10.06,10.06,0,0,0-.09,1.9c0,1.08,0,.42,0,2.7a24.09,24.09,0,0,0,.11,2.53,13.4,13.4,0,0,0,.6,2.29,8.11,8.11,0,0,1,.69,2.06,6.8,6.8,0,0,1,0,1.57,2.18,2.18,0,0,0,0,.77,1.84,1.84,0,0,1,0,.48c0,.18,0,.37-.12.41s-.53-.35-.64-.46a6.56,6.56,0,0,0-3.19-1.48,4.76,4.76,0,0,0-3.12-.07,2,2,0,0,0-1,1,.81.81,0,0,0,0,.77c.11.15.28.21.66.36s.71.29,1.08.42.53.24,2,1.74c.85.89,1.27,1.33,1.55,1.69s.49.7,1,1.29c0,.07,0,0,.88,1a4.32,4.32,0,0,0,.64.64l.62.44c.2.14.29.21.29.3s-.15.2-.34.37a2.27,2.27,0,0,0-.39.56c-.58,1-1.12,2.31-1.12,2.31a13.75,13.75,0,0,0-.8,2.1c0,.26-.07.69-.11,1.56a2.05,2.05,0,0,0,0,.94,1.09,1.09,0,0,1,.12.47,1,1,0,0,1-.29.62c-.48.54-.75,1.19-1.24,1.72-.65.69-.76,1.09-3.27,4.8-1.56,2.3-2.34,3.45-2.83,4.05-1.61,1.94-2.2,2.11-3.81,3.88-.66.72-.91,1.07-4,5.67-2.14,3.18-3,4.41-3.53,5.15-.26-.46-.56-.95-.88-1.48a77.93,77.93,0,0,0-6.41-8.71c-3.58-4.51-4.21-5.09-5.4-7.15-1.49-2.59-1.05-2.63-2.58-5-.87-1.38-2.87-4.31-4.39-6.53l-.45-.62a11,11,0,0,0-1.71-2.79c-.83-1-1.16-1.87-1.8-2.69a8.52,8.52,0,0,1-1-1.78,18,18,0,0,1-1.09-3.44c-.75-2.94-.66-2.83-1-3.84-.16-.5-.53-1.65-1.13-3.08-.32-.77-.58-1.3-.91-2a11.65,11.65,0,0,0-1.47-2.65c-.81-.8-1.24-.59-1.85-1.43a2,2,0,0,0-.92-.79.85.85,0,0,0-.64,0,1,1,0,0,0-.5.76c0,.14,0,.4.29,1.38.24.69.36.89.25,1.06s-.28.11-.8.2a7.11,7.11,0,0,0-1,.29c-.68.24-1,.36-1.22.68s0,.56-.3.84-.37.15-.91.36a2.45,2.45,0,0,0-1.23.82c-.23.35-.1.47-.34.77s-.58.24-1,.59a2.31,2.31,0,0,0-.65,1.27c-.07.42,0,.67-.22,1a1.67,1.67,0,0,1-.38.36c-.42.34-.57.35-.73.5s-.33.35-.25,1.54a11.84,11.84,0,0,0,.28,1.72,20.26,20.26,0,0,0,.37,2,7.48,7.48,0,0,0,.68,1.59,9.17,9.17,0,0,0,2.47,2.54,27.77,27.77,0,0,0,3.14,2.2,10.53,10.53,0,0,1,2.5,1.64c.43.44.58.49,1.21,2.11a2.44,2.44,0,0,0,.1.24,1.32,1.32,0,0,0,.08.33c.13.37.36.58.89,1.68s.9,1.85,1.14,2.38c1.3,3,3.89,10.53,3.89,10.53a50.17,50.17,0,0,0,4,9.62c1.7,2.95,2.42,3.33,7.53,11,1,1.5,1.56,2.38,2.06,3.23-.38.43-.69.82-1.23,1.36a32.38,32.38,0,0,1-4.4,3.08,36.55,36.55,0,0,1-4.89,2.93,27.23,27.23,0,0,0-3.82,1.46,3.31,3.31,0,0,1-1.34.53,4,4,0,0,1-.92,0c-.74-.07-.9-.31-1.4-.33a2.75,2.75,0,0,0-1.39.49c-1,.5-.85.69-1.87,1.25a2.49,2.49,0,0,0-.92.61c-.19.22-.23.42-.48.51a1.05,1.05,0,0,1-.7,0,4.49,4.49,0,0,1-1.73-1.18,7.49,7.49,0,0,0-2.51-1.81,8.85,8.85,0,0,0-2.28-.68,1.88,1.88,0,0,1-.59-.15,1.52,1.52,0,0,1-.59-.58c-.34-.49-.21-.56-.48-.93s-.64-.53-.63-.82a.66.66,0,0,1,.26-.42c.33-.36.58-.76.95-1.1a10.51,10.51,0,0,0,1.72-2.7c.81-1.5.68-1.49,1.42-2.91a30.7,30.7,0,0,0,1.61-2.94c.46-1.2.06-1,.54-3.06a2.57,2.57,0,0,0-.12-1.6,1,1,0,0,0-.48-.54c-.26-.14-.45-.08-.7-.21a1,1,0,0,1-.44-.58,9.33,9.33,0,0,1,0-3.84,28.29,28.29,0,0,0,.39-2.91,10.19,10.19,0,0,0-1.59-6.19,13.34,13.34,0,0,0-5.7-4.42,23,23,0,0,0-14.43-2,21.38,21.38,0,0,0-8.81,4.15,9.5,9.5,0,0,0-3,3.08,6.67,6.67,0,0,0-1,3.71c0,.9.29,1.23.5,3.23.08.74.13,1.43.13,1.43.09,1.25,0,1.44.13,2.14a6.18,6.18,0,0,1,0,.77c0,.43,0,.31,0,.64s0,.32,0,.39-.36,0-.63,0a1.84,1.84,0,0,0-1.25.59c-.14.14-.28.35-.41,1.31a11.84,11.84,0,0,0-.12,1.48,10.06,10.06,0,0,0,.08,2,6.2,6.2,0,0,0,1,2.26,3.78,3.78,0,0,0,1.06,1.15,2.39,2.39,0,0,0,1.1.48c.58.05.81.05.81.05.24,0,.39,0,.49.08s.12.31.1.43a4.27,4.27,0,0,0,.2,1.61l.23.79c.08.23.14.34.07.46s-.36.15-.66.26a1.88,1.88,0,0,0-.78.71,2.55,2.55,0,0,0-.66,1.44c0,.24,0,.39-.09.56a1.14,1.14,0,0,1-.74.33c-.64.12-.72.36-1.78.93a10.43,10.43,0,0,1-3.08,1.2c-.39.07-.63.09-.88.12a34.78,34.78,0,0,0-2.31-4.08c-.85-1.39-1-1.52-1.59-2.57a18.93,18.93,0,0,0-1-1.62c-.46-.68-.45-.56-.79-1.08s-.68-1.13-1.22-1.91a1.42,1.42,0,0,0-.56-.52.76.76,0,0,0-.66-.1c-.25.14-.29.52-.3.67a2.69,2.69,0,0,0,.42,1.46c.57,1.23.4,1,.73,1.64.25.51.47,1,.73,1.52s.41.78.31.9-.29,0-.41,0c-.49-.23-.64-.92-.73-1.25,0-.17-.59-1.13-1.69-3.06a5.83,5.83,0,0,0-1.41-2,2,2,0,0,0-1.54-.58.89.89,0,0,0-.69.46c-.16.33,0,.73.2,1a3.92,3.92,0,0,0,.54.73,12.72,12.72,0,0,1,.74,1.31c.45.75.52.75.82,1.34s.17.45.44.95.4.68.31.83a.3.3,0,0,1-.31.1c-.3-.05-.45-.44-.61-.78-.32-.65-.28-.28-1.08-1.62-.11-.19-.13-.22-.77-1.39-.42-.77-.65-1.18-1-1.71-.53-.83-.75-1.06-1.06-1.2a1.52,1.52,0,0,0-.89-.12,1,1,0,0,0-.77.48c-.06.14-.07.33.11.81a6,6,0,0,0,.59,1.2c.67,1,.45,1,1.17,2.1.38.6.43.58,1,1.44.17.27.36.65.75,1.42.21.43.34.7.24.95a.55.55,0,0,1-.44.35c-.27,0-.48-.26-.83-.74s-.63-.87-1-1.46c-.62-.93-.59-.75-1.06-1.5a7,7,0,0,0-1-1.44c-.59-.59-1-.62-1.11-.62a1,1,0,0,0-.69.24,1.23,1.23,0,0,0-.37.87,2.37,2.37,0,0,0,.34,1.18c.77,1.57.84,1.7.84,1.7l.33.57a3.29,3.29,0,0,1-.39-.23,4.57,4.57,0,0,1-1.58-2.26c-.76-1.6-1.23-1.25-3.55-4.18-.23-.3-1.05-1.46-2.66-3.78-2.11-3-2.07-3-2.37-3.38a48,48,0,0,0-3.84-4.43c-1.64-1.68-1.81-1.62-2.66-2.65a19.33,19.33,0,0,1-2.37-3.95,48.43,48.43,0,0,0-3.84-6l-.75-1c1.91-1.61,3.28-2.84,6.46-5.33,3.54-2.77,3.54-2.58,5.49-4.2,1.15-.95,2.48-1.71,3.62-2.67a5.78,5.78,0,0,1,1.52-.91,4.49,4.49,0,0,1,1.22-.31,8.27,8.27,0,0,1,1.33.05,5.85,5.85,0,0,0,2.23-.43,16.37,16.37,0,0,0,1.68-.89,23.24,23.24,0,0,0,2.51-1.5,2.44,2.44,0,0,1,.75-.49,1.72,1.72,0,0,1,.39-.11,1.65,1.65,0,0,1,.7.06,2.55,2.55,0,0,0,1.26-.26,6.13,6.13,0,0,0,1.76-.87,3.6,3.6,0,0,0,1.11-1.09,2.89,2.89,0,0,0,.38-1.33,3.84,3.84,0,0,0-.31-1.82c-.23-.51-.36-.48-.69-1.1-.42-.8-.26-1-.59-1.65a6.17,6.17,0,0,0-1.54-1.87c-.68-.62-.75-.5-1.27-1s-.61-.92-1.15-1.2c-.27-.14-.35-.12-1.08-.42-.39-.17-.59-.26-.78-.36-.73-.4-.69-.69-1.35-1.09a2.19,2.19,0,0,0-1.28-.45c-.46,0-.54.24-1.4.5a6.49,6.49,0,0,1-1.11.23c-.75.08-.9,0-1.56,0a5,5,0,0,0-1.93.48,5.15,5.15,0,0,0-1.36,1.06c-1,.92-1.53,1.68-2.47,2.72-.38.42-.56.61-.67.71s-.26.24-.43.42l-.49.53a13.58,13.58,0,0,0-1.85,2.79,3,3,0,0,0-.27.76c-.08.39,0,.5-.13.74a1.52,1.52,0,0,1-.59.59,3.25,3.25,0,0,1-.83.4c-.1,0-1.21.57-3.44,1.65s-3.76,1.89-4.56,2.31c-1.72.9-1.81,1-3.25,1.72-.37.19-2,1-3.32,1.64-.55.25-1.06.47-1.55.67-.35-.58-.68-1.19-1-1.87a19.53,19.53,0,0,1-1.26-3.08c-.42-1.34-.23-1.28-.6-2.24-.32-.81-.61-1.25-.45-1.87a2.45,2.45,0,0,1,.73-1.1,10.67,10.67,0,0,1,2.2-1.34,12.78,12.78,0,0,0,1.84-1.76c1.25-1.31,1.23-1.44,2-2.19a20.66,20.66,0,0,1,1.83-1.47,9.45,9.45,0,0,1,1.69-1c.32-.15.76-.31.79-.32a4.46,4.46,0,0,1,.75-.25c.32-.05.48,0,.54-.1s-.18-.41-.24-.47a3.15,3.15,0,0,0-1.72-.72,6.82,6.82,0,0,0-2.57.11,8.35,8.35,0,0,0-2.92,1.54,7.37,7.37,0,0,0-.9.69,3,3,0,0,1-.71.6.9.9,0,0,1-.59.19c-.27-.06-.38-.4-.43-.58a7.64,7.64,0,0,1-.21-2.54,11.66,11.66,0,0,1,.47-2.6c.24-.74.34-.75.78-1.9.28-.72.44-1.22.75-2.22s.52-1.79.87-3.16a13.24,13.24,0,0,0,.3-2.27,1.7,1.7,0,0,0-.31-1.25,1.38,1.38,0,0,0-.63-.47,1.53,1.53,0,0,0-.94,0c-.32.11-.52.36-.77,1a9.49,9.49,0,0,0-.45,1.79,13.49,13.49,0,0,1-.86,1.92c-.34.79-.74,1.78-1,2.38a10.83,10.83,0,0,1-.55,1.2,3.62,3.62,0,0,0-.24.44,1.44,1.44,0,0,1-.18.4s-.2.26-.31.24-.15-.45-.15-.65a5.06,5.06,0,0,1,.34-2.17,14.87,14.87,0,0,0,.46-4c.14-2.32-.12-2.48,0-3.46a2.55,2.55,0,0,0-.12-1,1.2,1.2,0,0,0-.32-.6,1.76,1.76,0,0,0-1.23-.37,1.68,1.68,0,0,0-1.12.41,1.18,1.18,0,0,0-.21,1,17.19,17.19,0,0,1-.1,2.63,15.6,15.6,0,0,1-.23,1.63,12.37,12.37,0,0,1-.33,1.58,12,12,0,0,0-.43,1.36c-.09.45-.14.85-.14.85s0,.11-.08.83a2.83,2.83,0,0,1-.12.72,2.15,2.15,0,0,1-.26.48c-.14.21-.28.41-.44.4s-.15,0-.28-.3a1.59,1.59,0,0,1-.1-1c.08-.42-.06-.16-.08-1.66a20.9,20.9,0,0,1,.07-2.31,12.77,12.77,0,0,1,.52-3.41,2,2,0,0,0,.17-1.21,1.17,1.17,0,0,0-.29-.55,1.6,1.6,0,0,0-.85-.4,1.79,1.79,0,0,0-1.23.3c-.13.08-.45.31-.77,1.2a8,8,0,0,0-.34,1.51c-.25,1.44-.23,1.2-.32,1.85-.16,1.07-.1,1-.24,2a22.35,22.35,0,0,0-.42,2.85c0,.38,0,.76,0,1.14a1.89,1.89,0,0,1,0,.51,1.11,1.11,0,0,1-.17.48.92.92,0,0,1-.64.44,1.06,1.06,0,0,1-.76-.25,1.31,1.31,0,0,1-.4-.76,6.51,6.51,0,0,1-.2-1,16.15,16.15,0,0,0-.43-1.69,12.24,12.24,0,0,1-.32-1.91c-.13-1.37.08-1.77-.36-2.45a1.44,1.44,0,0,0-.91-.71,1.63,1.63,0,0,0-1.17.28c-.21.15-.49.46-.53,1.7a9.58,9.58,0,0,0,.12,1.71c.06.5,0-.1.21,2.46.28,3,.32,2.89.31,3.36a17.27,17.27,0,0,1-.66,3.06,14.09,14.09,0,0,0-.38,5.6,13.33,13.33,0,0,0,.49,1.88,14,14,0,0,0,1.07,2.38,2.91,2.91,0,0,0,.78,1c.29.22.51.27.63.51s.07.38-.15.85a8.52,8.52,0,0,1-.77,1.15c-.26.48-.12.87.12,1.85.2.83.34,1.67.52,2.51a12.88,12.88,0,0,1,.49,3.06c-.05,1.12-.36,1.14-.43,2.3a7.13,7.13,0,0,0,.3,2.39,23.62,23.62,0,0,0-4.29,2.27c-.46.32-1.37,1.07-3.19,2.57-3.06,2.52-3.91,3.36-6,4.82-.94.65-1.6,1.07-2.7,1.76-3,1.9-4.18,2.37-7,4,0,0-.93.53-1.64.85a18.82,18.82,0,0,1-.2-3.15,22.91,22.91,0,0,1,1.79-7.92c1.21-3.16,2-3.53,3-6.77.25-.81.51-2.09,1-4.6.42-2.08.92-4.64,1.69-8.95.55-3.07.82-4.61,1-5.52a44.54,44.54,0,0,1,1.1-5.73c.45-1.47.81-2.18,1.36-4.27.17-.64.44-1.64.64-2.79a25.63,25.63,0,0,0,.29-5.85,65.88,65.88,0,0,0-1.29-8c0-.08-.8-4.88-1.19-6.27-1.84-6.53-1.45-5.73-1.94-7.05a51.18,51.18,0,0,1-1.57-5.09c-.14-.58-.24-1.17-.24-1.17,0-.25-.09-.53-.14-.91-.11-.84-.14-1.32-.2-1.89-.08-.81-.11-.65-.28-2-.21-1.59-.29-2.72-.4-3.54,0,0,0-.15,0-.3a7.61,7.61,0,0,1,0-.92,7.45,7.45,0,0,1,.18-1.17c.16-.83.31-1.45.38-2.17a3.12,3.12,0,0,0,0-.37,3.47,3.47,0,0,0-.16-1,10.15,10.15,0,0,1-.22-1.5c-.14-1.3,0-1.88-.4-2.52l-.21-.3c-.34-.47-.58-.61-.74-1a.7.7,0,0,1,0-.12,2.88,2.88,0,0,1-.08-1.05c0-.71,0-.59,0-.77a4.87,4.87,0,0,0,0-.79s0-.15,0-.31a2.83,2.83,0,0,0-.49-1.36,2.1,2.1,0,0,0-1-.82,1.66,1.66,0,0,0-1.11-.07c-.29.1-.42.27-.7.24a1,1,0,0,1-.48-.24,2.83,2.83,0,0,0-1.26-.4,2.55,2.55,0,0,0-1.73.07,3,3,0,0,0-.73.53c-.1.12-.15.2-.26.23s-.33-.26-.65-.44a1.44,1.44,0,0,0-1.34,0,2.25,2.25,0,0,0-.59.56,1.41,1.41,0,0,0-.39.61c0,.12,0,.21-.08.26s-.38-.07-.48-.13a2.92,2.92,0,0,0-1.77-.22,2.14,2.14,0,0,0-1.39.48,2.49,2.49,0,0,0-.55.94,5.35,5.35,0,0,1-.38,1,1.9,1.9,0,0,1-.17.2l-.09.08a5.64,5.64,0,0,1-1,.38,1.42,1.42,0,0,0-.67.86c-.12.27-.13.42-.13,1.66a6,6,0,0,0,.21,2.17s.07.18.16.37c.28.6.47.71.8,1.33a6.57,6.57,0,0,1,.32.68c.09.24.11.37.22.66l.23.51a11.7,11.7,0,0,0,2.34,3,12.15,12.15,0,0,0,1.06.85,6.4,6.4,0,0,0,1.1.71,3.85,3.85,0,0,0,1,.4,1.46,1.46,0,0,1,.61.2.78.78,0,0,1,.26.22.91.91,0,0,1,0,.67,7.74,7.74,0,0,0-.11,1.19,16.47,16.47,0,0,0,.06,2.72c0,.75.07.72.13,1.63s.08,1.54.1,1.9c.05,1.12.1,1.39.28,3.62a38.64,38.64,0,0,1,.26,4.74c-.05,1.23-.21,2.34-.23,2.48s-.08.56-.2,1.15c-.34,1.77-.51,1.87-.74,3.08a46.91,46.91,0,0,0-.46,4.78c0,.64,0,.82.07,1.67,0,.37,0,.81,0,1.39,0,2.79.21,5.87.37,7.37a15.15,15.15,0,0,1,.1,2.83,13.48,13.48,0,0,1-.31,2,43.82,43.82,0,0,1-1.41,4.56c-.53,1.69-.33,1.42-.87,3.17-1,3.29-1.36,3.06-1.89,5.27a17.21,17.21,0,0,1-1,3.46,8.25,8.25,0,0,1-.92,1.66,8.8,8.8,0,0,1-1.62,1.73c-1,.82-1.21.53-2,1.18a5.27,5.27,0,0,0-1.76,2.94c-.12.66,0,1-.38,1.35s-.71.27-1.71.33a19.11,19.11,0,0,0-2.25.2A6.46,6.46,0,0,0,828,220a14.45,14.45,0,0,0-2.76,2.38,9.64,9.64,0,0,0-1.75,2.16c-.19.4-.45.77-.68,1.16s-.24.44-.32.43-.07-.44-.05-1c0-1.26,0-1,0-1.69.08-1.22.19-1.08.28-2.32a11.37,11.37,0,0,0,.19-2c0-.18-.06-.54.13-.65s.34.08.7.12a2,2,0,0,0,1.09-.22,3,3,0,0,0,1-.77,3.82,3.82,0,0,0,.81-1.81,13,13,0,0,0,.2-2.33c.09-1.6.2-1.72.21-2.94a4.85,4.85,0,0,0-.38-2.3,1.63,1.63,0,0,0-.94-1,1.74,1.74,0,0,0-1.09.12,5.56,5.56,0,0,0-.55.31c-.24.17-.32.27-.39.25s-.08-.46-.06-.79c0,0,0-.53-.13-1.58-.06-.76-.19-2.45-.39-3.67a15,15,0,0,0-1.23-4.11,13.71,13.71,0,0,0-3.21-4.26,15,15,0,0,0-6.09-3.06,21.16,21.16,0,0,0-7.46-.61,20.86,20.86,0,0,0-8.54,2.66,14.09,14.09,0,0,0-5.84,5.69,12.3,12.3,0,0,0-1.16,4,16.57,16.57,0,0,0,.25,4.7,17,17,0,0,0,.63,2.79,12.2,12.2,0,0,1,.47,1.3,2.75,2.75,0,0,0,.25.7c.12.23.24.33.19.41s-.38,0-.69,0a2.05,2.05,0,0,0-1.35.65c-.55.58-.35,1.48-.16,2.28.41,1.77,1.08,1.83,1.81,3.93a12.71,12.71,0,0,0,.77,2,3.45,3.45,0,0,0,1.16,1.55,2.37,2.37,0,0,0,1.38.54,1,1,0,0,1,.58.07.9.9,0,0,1,.4.49,3.33,3.33,0,0,1,.35,1A5.94,5.94,0,0,0,797,227c.64.78.84.71,1.25,1.39s.25.67.67,1.33c0,.08.21.38.53,1,.16.29.23.43.17.54s-.46.07-.91.15a2.41,2.41,0,0,0-1.14.59c-.67.51-.58.78-1.19,1.35s-.81.36-1.32.86-.51,1-1.09,2a9.17,9.17,0,0,1-1.07,1.41c-1.11,1.2-2.64,1.4-4.81,2a26.66,26.66,0,0,0-5.5,2,14.85,14.85,0,0,0-4.13,3.47l-.1.11c-.41-.21-.74-.4-.93-.52-1-.61-4-2.64-5.36-3.75a8.66,8.66,0,0,1-.73-.69l.28-.08c1.92-.51,2.33-.23,3.71-.68a9.11,9.11,0,0,0,2.74-1.5c1.67-1.23,1.42-1.76,2.81-2.64,1.64-1,2.31-.51,3.18-1.48.66-.75.49-1.3,1.55-2.63.5-.62.53-.5.9-1,.8-1.13.52-1.62,1.22-2.7s1-.76,1.35-1.57a3.67,3.67,0,0,0,.1-2.53c-.25-.92-.58-.88-.88-1.79-.41-1.21.06-1.63-.17-2.73-.06-.29-.16-.59-1.87-2.77s-2.29-2.7-2.78-3a5.34,5.34,0,0,0-2.31-1c-1.05-.13-1.35.21-2.52,0a6.58,6.58,0,0,1-2.16-.74c-1.17-.58-1.15-.91-2.23-1.36-.24-.1-.48-.2-.73-.28-2-2.63-5-3.39-7-3.91a13.86,13.86,0,0,0-7.25-.14,11.5,11.5,0,0,0-5.63,3.15,11.14,11.14,0,0,0-2.9,5.56s0,0,0,0-.1.82-.18,1.24a21,21,0,0,0,0,2.67c0,.22,0,1.49,0,2.26a1.34,1.34,0,0,1-.54,1.18c-.27.23,0,1.63,0,2.4a22.19,22.19,0,0,0,1.15,4.85,4,4,0,0,0,1.36,1.18c.32.15.26,1.58.46,2.72l-1.34.54a140.39,140.39,0,0,0-13.87,2.21l-.41.08c0-.17,0-.36.06-.57.14-1.38.3-2.76.39-3.38a49.41,49.41,0,0,1,1.76-6.49A37.9,37.9,0,0,1,741,221.3c.91-2.1,1.28-2.09,2-3.91a13.26,13.26,0,0,0,1.2-5.36,13.85,13.85,0,0,0-.68-3.91,7.67,7.67,0,0,0-.51-1.19,8.62,8.62,0,0,0-1.19-1.69c-1.51-1.78-1.22-2-2.38-3.18-.92-1-1-.75-2-1.8a23.58,23.58,0,0,1-2.17-2.76c-1.58-2.21-1.46-2.35-2.16-3a4.78,4.78,0,0,1-1.2-1.3c-.2-.35-.34-.73-.63-1.22-.11-.2-.2-.42-.32-.61a.55.55,0,0,1-.13-.27c0-.16.12-.26.31-.48s.21-.31.33-.46c.36-.5.35-.55.55-.81a6.76,6.76,0,0,1,.7-.74c.13-.14.48-.51.84-.95.51-.62.39-.6.93-1.28a2.14,2.14,0,0,0,.41-.6c.13-.31.08-.48.24-.62s.38-.13.67-.16a4.18,4.18,0,0,0,1.3-.42,4.94,4.94,0,0,0,1.26-.8c1.48-1.17,2.28-1.87,2.28-1.87a27.36,27.36,0,0,0,2.36-2.26c.28-.32.55-.67.55-.67l.5-.67c.23-.33.33-.5.53-.81.31-.47.55-.81.75-1.09a14.9,14.9,0,0,1,1.79-2.23,3,3,0,0,0,.6-.62s.13-.2.31-.42.26-.26.33-.27.17.09.35.27.29.22.42.34a4,4,0,0,0,1.08.63,5.62,5.62,0,0,0,1.82.41,7.18,7.18,0,0,0,2.7-.38l.25-.08a15.86,15.86,0,0,0,4.6-3.22c1.68-1.51,2.52-2.27,2.34-2.87a2.8,2.8,0,0,0-.46-.77,13.32,13.32,0,0,0-1-1,4.27,4.27,0,0,1-.54-1.49,14.85,14.85,0,0,1-.53-2.73,4,4,0,0,1,0-1.19c.23-1,1-1.13,1.7-2.2s.16-1.64,1-3.2c.3-.53.89-1.41,1.18-1.32s.19.75.09,2.13a16.38,16.38,0,0,1-.24,2.17c-.22,1.1-.5,1.71-.33,1.79s.28-.12.79-.6c.89-.84,1.33-1.26,1.41-1.35a13.48,13.48,0,0,0,2-2.91,19.62,19.62,0,0,0,1.56-7.54c.1-1.65.17-4.14.13-6.27a18.5,18.5,0,0,1,.1-3,15,15,0,0,0,.38-2.62c0-.6-.08-1.17.15-1.25s.36.25.92.58,1.42.6,1.56.44-.24-.47-.52-.85a5.59,5.59,0,0,1-.94-2.64c-.33-1.6-1.45-3.6-3.48-7.26a43.08,43.08,0,0,0-3.32-5.43c-1.73-2.32-3.15-4.24-5.64-5.82-1.48-1-1.61-.68-7.78-2.86-5.22-1.84-5.62-2.21-8.08-2.76a28.48,28.48,0,0,0-6.77-.82,20.7,20.7,0,0,0-9.93,2c-2,1.07-1.79,1.52-4.59,3.06s-3.35,1.26-5.66,2.55a23.51,23.51,0,0,0-5.61,4.53,21.31,21.31,0,0,0-4.15,5.42,17,17,0,0,0-1.92,6c-.11,1-.11,1.87-.41,3.64-.06.31-.31,1.25-.8,3.13-.35,1.3-.51,1.87-.88,1.94s-.55-.32-1.29-1c-.19-.17-.88-.63-2.25-1.56a21.4,21.4,0,0,1-2.25-1.56,10.37,10.37,0,0,1-1.52-1.89c-.91-1.32-.75-1.43-1.5-2.46a10.13,10.13,0,0,0-2.13-2.26c-.76-.57-.91-.49-1.58-1.07-.86-.74-.71-1-1.61-1.76a5,5,0,0,0-1.89-1.29c-.48-.16-.92-.19-1.19-.56a5,5,0,0,1-.32-.78s-.16-.41-.32-.74c-.22-.49-.42-.83-.47-.93a21.3,21.3,0,0,1-1.17-3c-1.33-4.15-2.1-5.67-3.34-10.35-.44-1.71-.72-2.74-1-4.27-.67-3.37-.67-5-1.26-10.45-.35-3.22-.53-4.83-.69-5.58-.53-2.47-1.33-4.53-3.79-9.33-3.44-6.69-6.63-12-6.63-12a58.48,58.48,0,0,1-4-7.41c-.78-1.79-1.66-4.12-1.87-4.66-.77-2-.78-2.22-1.68-4.69-.42-1.15-1.31-3.55-2.49-6.46-1.27-3.11-1.9-4.67-2-4.78a3.9,3.9,0,0,1-.48-1.15,1.91,1.91,0,0,1,0-1.16c.13-.38.33-.44.68-.93a5,5,0,0,0,.54-1.09,17.36,17.36,0,0,0,1-4.67c0-.53.05-1,.05-1,0-.36,0-.54,0-.84s0-.57,0-1.37c.12-2,.33-3.28.28-5.13a6.24,6.24,0,0,0-.32-2.34,6.12,6.12,0,0,0-1.61-2.19,19.38,19.38,0,0,1-1.75-1.31,8.16,8.16,0,0,1-1-1.2c-.66-1-.49-1.33-1-1.76a3.3,3.3,0,0,0-1.91-.59c-1.18-.11-1.45.23-2.71.06-.32-.05-.63-.12-1.26-.28-1.15-.27-1.21-.37-1.65-.44-.92-.15-1.27.15-2.62.34-1.17.17-1.12,0-2.56.09a11,11,0,0,0-3.78.77c-1.13.48-1.12.79-2.48,1.31-1,.41-1.16.26-2,.64a7,7,0,0,0-2.34,1.75A4.62,4.62,0,0,0,625.16,18a4.37,4.37,0,0,0,0,2.16,7.11,7.11,0,0,0,1,2.47c.47.78.7,1.17,1.12,1.36a2.3,2.3,0,0,1,.83.53,1.65,1.65,0,0,1,.31.46,3.07,3.07,0,0,1,.3,1.19,26.09,26.09,0,0,0,1.11,3.8,17.83,17.83,0,0,0,.88,2.44,6.82,6.82,0,0,0,2,2.38,8.84,8.84,0,0,1,1.53,1.08,5.51,5.51,0,0,1,1,1.39,6.37,6.37,0,0,1,.67,2.31c.21,2,.84,4,1.05,6.06.36,3.47.58,3.26,1.43,9.36,1.08,7.75.94,9.62,1.78,16.42a113.55,113.55,0,0,0,3,17.09c.81,3,2.83,10.55,5.79,15.15.22.34,1.42,2.18,2.78,4.76a34.26,34.26,0,0,1,2,4.16,20.88,20.88,0,0,1,1.12,6.91c.1,2.34,1.4,6.65,4,15.26,2.26,7.51,2.06,6,2.73,8.71,1.32,5.41,1.57,9.27,2,16.16a28.27,28.27,0,0,1-.29,7.92,40.08,40.08,0,0,1-1.44,5c-1.39,4.23-2.65,7.36-2.78,7.67-2.35,5.89-3,12.77-3.53,16.49-1.58,11.64-4.29,12.14-9.42,32.13l-1.39,6.41c-.38,0-.74.08-1.1.13-1.11.19-2.24.33-3.34.54a13.31,13.31,0,0,1-1.78.27,4.34,4.34,0,0,1-2.62-.25,2.35,2.35,0,0,1-.95-1.57,5.15,5.15,0,0,1,0-2.19c.06-.46.12-.73.31-1.67a22.29,22.29,0,0,1,.62-2.8c.44-1,.65-.73,1.56-2.37a5.34,5.34,0,0,1,1.15-1.58,2.21,2.21,0,0,1,1.14-.71c.62-.11.87.2,1.79.34a4.08,4.08,0,0,0,2-.09,3.6,3.6,0,0,0,1.77-1.76,9.37,9.37,0,0,0,.83-1.75,18.42,18.42,0,0,0,1.14-3.25,5.29,5.29,0,0,0-.64-3,2.69,2.69,0,0,0-1.16-1.31c-.57-.29-1-.21-1.25-.52s0-.82.3-1.32a17.45,17.45,0,0,0,.83-2.63,20,20,0,0,0,.83-3.85,18.74,18.74,0,0,0-.12-4.12,22.43,22.43,0,0,0-.86-5,16.45,16.45,0,0,0-8.52-9.86c-4-1.85-7.93-1.51-12.57-1.1-3.24.29-6.07.54-9.31,2.05a21,21,0,0,0-7,5.46,16.51,16.51,0,0,0-3.75,5.53c-.45,1.31-1.3,2.53-1.66,3.86a2.18,2.18,0,0,1-.73,1.23c-.68.53-1.35.36-2.09.71s-1.08,1.09-1.56,2.45a8.32,8.32,0,0,0-.62,4.12c.18,1.41.31,2.46,1.27,3.24a11,11,0,0,0,2.62,1.57,2.3,2.3,0,0,1,1.05.69,1.57,1.57,0,0,1,.32.88c.17,2,.25,3,.22,3.24-.41,3.31.66,3.85-.08,6.83-.44,1.81-.69,1-2.39,5.17a3.66,3.66,0,0,1-1.56,2.2c-1,.53-2.06.38-3.56.19-6.48-.83-5.51-.45-7.23-.85-3.41-.81-3-1.31-6.18-2-2.27-.48-4.76-1-6.91,0-1.24.59-1,1-2.3,1.94-2.12,1.48-3.76,1-9.2,2.05-3.81.73-3.52,1.07-6.07,1.33-2.83.3-3.59-.07-6.39.38s-2.55.86-4.91,1.15a44.13,44.13,0,0,1-6.5-.06c-3.92-.17-4.08-.33-5-.07-1.41.39-2.38,1.1-3.77.8a2,2,0,0,1-1.26-.69c-.39-.6,0-1.34.31-1.93,1.69-3.3,0-1.11,1.76-3.86,1.54-2.43,2.93-4.29,3.34-4.83,1.58-2.11,2.7-3.62,5.42-7.11,2.19-2.82,2.87-3.66,4.38-4.31.84-.37.78-.17,4.5-1a48.15,48.15,0,0,0,5.85-1.51c2.25-.78,2-1,3.66-1.42,2-.52,3.05-.47,3.56-1.24s0-1.27.62-1.92c.41-.41.68-.28,1.36-.71a4.11,4.11,0,0,0,1.56-2,5.1,5.1,0,0,0,.41-2.1c0-1.26,0-2.1-.64-2.72a4.89,4.89,0,0,0-3.24-.77c-.92.06-1.26.31-1.78.09-.7-.29-.46-.88-1.27-1.39s-1.19-.22-1.67-.7a1.91,1.91,0,0,1-.43-1c-.23-1.08,0-1.4-.21-2.19a2.09,2.09,0,0,0-.74-1.22,3.92,3.92,0,0,0-4,.36c-.43.34-.67.76-1,.71-.14,0-.27-.09-.74-.7s-.46-.75-.63-.87-.9-.56-2.72-.17a11.19,11.19,0,0,0-4.81,2.47,40.23,40.23,0,0,0-5.84,6.15c-2.71,3.76-2.5,4.49-4.58,7.47-.86,1.23-2.05,2.74-6.78,7.29-6.95,6.68-7,5.93-10.23,9.32-5.79,6.1-4.12,7-9.79,12.82a40.26,40.26,0,0,0-4.72,6.56c-1,1.67-1.56,2.8-1.38,4.21a6.71,6.71,0,0,0,2.52,4,15.31,15.31,0,0,0,5.88,3,38.9,38.9,0,0,0,10.34,1.83c3.35.13,5.39-.21,8.65.67a6.85,6.85,0,0,1,3.36,1.62c1.28,1.34.76,2.58,2,3.27,1,.55,2,.13,3.91,0,1.61-.12,2.47.07,6.14.68,9.38,1.57,8.87,1.23,12.57,2.06,4.67,1,7,1.54,8.39,2.53a10.44,10.44,0,0,1,.94.77c-.17,1.05-.22,1.41-.22,1.41s-.13.88-.77,3.53A10.23,10.23,0,0,1,562,276a1.89,1.89,0,0,1-.49.75,2.26,2.26,0,0,1-1.43.31c-.64,0-1.26.14-1.9.15a33,33,0,0,0-4,.45c-2.14.29-4.34.37-8.76.54-2.79.11-2,0-6.67.16-4.25.13-4.57.19-5.66.06a28.07,28.07,0,0,1-6.46-1.78c-2.79-1-2.53-1.11-5.12-2a70.19,70.19,0,0,0-6.76-1.91c-3.11-.7-3.16-.48-4.4-1-2.44-1-2.6-2.06-4.64-2.56a10.21,10.21,0,0,0-4.46.19c-3.11.56-3.15,1.37-5,1.36a32.36,32.36,0,0,1-5.25-1.56,16.48,16.48,0,0,0-3.55-1c-1.08-.13-1.32,0-2.6-.21-2.29-.36-2.93-1-3.13-1.17a3.77,3.77,0,0,1-.81-1.4,5,5,0,0,1-.21-2.14c0-.36,0-.18.29-1.83.12-.8.18-1.19.21-1.54s.11-.87.14-1.3,0-.63.13-.79c.23-.36.68-.35,1.2-.48a4.68,4.68,0,0,0,2.12-1.39,7,7,0,0,0,1.17-1.64,13.68,13.68,0,0,0,1.07-2.42,20.77,20.77,0,0,0,.72-2.43,25.88,25.88,0,0,0,.51-3.21,4.22,4.22,0,0,0-.05-2,2,2,0,0,0-.74-1.12,1.41,1.41,0,0,0-1-.29c-.26,0-.35.18-.47.12s-.19-.53-.14-1.17a13.14,13.14,0,0,1,.15-1.59,32.62,32.62,0,0,0-.4-8.42c-.61-4.36-.92-6.54-1.78-8.32a17.34,17.34,0,0,0-5.6-6.43,23.52,23.52,0,0,0-17-4.16,21.52,21.52,0,0,0-6.52,2.05,18.74,18.74,0,0,0-9.73,11.31c-.29.82-.95,2.79-1.61,9a87,87,0,0,0-.66,9.38,59,59,0,0,0,1.14,12.82,26.07,26.07,0,0,0,1.56,5.14c.52,1.21.65,1.25,1.46,3.1.5,1.14.89,2.18,1.69,4.26,1,2.73.44,1.35.81,2.3a4.63,4.63,0,0,1,.48,1.6,4,4,0,0,1-.29,1.69,3.69,3.69,0,0,1-1.09,1.81,3.24,3.24,0,0,1-1.69.56c-3.43.51-3,.61-3.66.6-1.95,0-2.13-.87-4.68-1.44a14.72,14.72,0,0,0-4-.28,21.1,21.1,0,0,0-5.74,1.12,26.86,26.86,0,0,0-3.77,1.54c-1.38-1.65-1.09-2.28-2.82-3.67-3.05-2.46-5.61-1.88-9.7-4.1-2.76-1.51-3-2.54-4.84-4.66l3.88.91c5.73,1.34,8.15,1.71,10.84,3.09a12.06,12.06,0,0,1,4,3.12c.18,0-2.26-4.74-8.67-7.19-4.88-1.86-8.68-1.11-12.14-2.05-.45-.42-.95-.86-1.52-1.34l0,0a6.2,6.2,0,0,0,.11-.77,5.15,5.15,0,0,0,0-.68,8.64,8.64,0,0,1,3.57,0c1.45.3,1.79.76,3,.69a4.49,4.49,0,0,0,2.91-1.2c.66-.63,1.19-1.48,1-1.64s-1.43,1.46-3.33,1.55c-.93.05-1.06-.34-3.27-1.07a10.57,10.57,0,0,0-3.66-.84,4.17,4.17,0,0,0-.8.08c0-.14-.08-.27-.13-.42a14.06,14.06,0,0,0-1.14-3.06,5.72,5.72,0,0,0-2.49-1.74,4,4,0,0,0-.36-1.67c-.1,0-.08.62-.19,1.45l-.6-.22c-2.21-.83-2.71-.46-3.87-1-.17-.34-.32-.64-.46-.9l1.64.15a15.71,15.71,0,0,1,3.71.54c1.84.67,1.56,1.44,3.45,2.52a10.8,10.8,0,0,0,5.47,1.44c2.47,0,4.53-1,4.46-1.13s-1.24.24-3.05.16a10.24,10.24,0,0,1-4.09-.94c-1.76-.94-1-1.81-2.76-3.21a10.46,10.46,0,0,0-4-1.75c-2.37-.57-3.28-.1-5.65-.45-.34,0-.63-.1-.91-.16-.26-.38-.55-.75-.87-1.13.58,0,1.18.06,1.82.06,2.58,0,4.53-.38,6,.4.1,0,.81.43,1.8.9a6.52,6.52,0,0,0,1.66.7c.13-.11-1.34-1.16-1.49-1.27a29.83,29.83,0,0,0-4.7-2.75c-2.93-1.26-5.64-.89-8.12-.81a16.59,16.59,0,0,0-1.8-1.15l0,0a6.79,6.79,0,0,1,3.64-.64,9.42,9.42,0,0,1,2.25.67c.25.11.95.43,1.83.9.69.37,1,.58,1.06.52s-.46-.69-1-1.15a8.48,8.48,0,0,0-3.23-1.48,13.83,13.83,0,0,0-3.17-.8,6.08,6.08,0,0,0-3.09,1.22,8.52,8.52,0,0,0-2.59-.52H382c-.68-1.35-.44-2.86-2.7-4.35-3.94-2.61-10.17-1.63-12-1.33a16.86,16.86,0,0,0-5.71,1.9,15.16,15.16,0,0,1,5-2.87c2.62-1.08,4.62-1.47,4.58-1.65a11.59,11.59,0,0,0-3.17.27l-.53.1a26.24,26.24,0,0,0-7.87,3.13c-1.43,1-3.57,2.74-4.18,4.89-.14.48-1.34,3.8-1,5.39a9.74,9.74,0,0,0-1.25,1.86,18.76,18.76,0,0,0-1.38,3.52c-.29,1.13-.4,2.13-.6,2.13s-.22-.69-.52-1.78a23.1,23.1,0,0,0-.84-2.16c-.85-2.36.19-3-.67-5.38-.2-.54-.3-.62-.87-2a18.35,18.35,0,0,1-.79-2.13,13,13,0,0,1-.49-2.55,29.24,29.24,0,0,1-.06-4.73c0-.14.09-.55-.13-.74s-.44,0-.57-.22,0-.44,0-.56c.2-.53,0-.83,0-1.87a20.36,20.36,0,0,1,.12-2.51s0-.7.11-3.13c.1-3.07,0-8.75,0-10.54-.07-5.63-.1-8.56,0-12.62.06-2.54.09-4.06.23-6.25.26-3.94.51-4.7.58-7.59a21.53,21.53,0,0,1,.17-2.3,14.91,14.91,0,0,1,.76-3.48c.15-.39.64-1.29,1.6-3.08s1-1.77,1.38-2.57c.64-1.26,1-1.89,1.29-2.69.66-1.62.64-2.11,1.29-3s.95-1.17.95-1.17c.47-.47.79-.66.86-1.09a1.09,1.09,0,0,0-.22-.87c-.36-.4-1-.31-1.52-.25a4.65,4.65,0,0,0-1.6.57,13.84,13.84,0,0,0-1.69,1.31c-1.19.95-1.14.83-1.6,1.26-.65.62-1,1.13-1.16,1.05s-.06-.1,0-.7a10.77,10.77,0,0,1,.13-1.08,6.19,6.19,0,0,1,.39-1.22,7.4,7.4,0,0,1,1-1.56,11.8,11.8,0,0,0,1.21-2.22c.18-.42.41-1.09.86-2.43,0,0,.17-.52.55-1.91a4,4,0,0,0,.21-1.52,1.42,1.42,0,0,0-.3-1,1.72,1.72,0,0,0-1.43-.21,2.54,2.54,0,0,0-1.18.44c-.18.13-.41.35-.9,1.34-.2.4-.4.86-.73,1.7-.49,1.26-.44,1.28-.69,1.78-.35.69-.37.5-1,1.57a7.24,7.24,0,0,1-1,1.43c-.5.54-.65.5-.69.48s-.13-.33-.13-.95c0-.46,0-.93,0-1.39,0-.25,0-.83-.06-2,0-1.46-.05-1.32,0-1.47a8.14,8.14,0,0,0,0-2,1.49,1.49,0,0,0-.35-.78,1.56,1.56,0,0,0-1-.39,1.51,1.51,0,0,0-1.12.23c-.17.12-.25.27-.44.73A6.5,6.5,0,0,0,341,161a18.06,18.06,0,0,0-.34,2.21,21.74,21.74,0,0,0,0,2.55c0,.69,0,1,.05,1.52s0,.94,0,1.4a1.13,1.13,0,0,1-.31,1,.72.72,0,0,1-.52.27.75.75,0,0,1-.48-.22,1.77,1.77,0,0,1-.52-.73c-.3-.74-.49-.59-1-1.6a13.37,13.37,0,0,1-.74-2c-.37-1.09-.44-1.34-.44-1.34-.26-.87-.28-1.08-.52-1.3a1.69,1.69,0,0,0-1.26-.3,1.54,1.54,0,0,0-.83.4,1.49,1.49,0,0,0-.38.69,2.78,2.78,0,0,0,.09,1.52c.29,1.22.1.9.4,2.08a11.4,11.4,0,0,0,.79,2.47,12.11,12.11,0,0,0,.78,1.56c.28.38.59.71.48,1a.66.66,0,0,1-.34.35c-.1,0-.33.13-1-.13a3.39,3.39,0,0,1-1-.6,6.42,6.42,0,0,1-1.13-1.43,9,9,0,0,0-1-1.43,3.56,3.56,0,0,0-1.21-.82,1.51,1.51,0,0,0-1.26-.08,1.34,1.34,0,0,0-.52,1,1.83,1.83,0,0,0,.09.87,3.51,3.51,0,0,0,.92,1.38c.3.33-.08,0,1.61,2.21.63.84,1,1.31,1.53,2A12.86,12.86,0,0,1,334,176.9a7.15,7.15,0,0,1,.88,2.51c.27,1.52,0,1.78.1,3.6,0,.42.2,1.38.53,3.3.51,2.86.56,3,.63,3.73a22.43,22.43,0,0,1-.08,3.64c-.2,2.61-.52,4.59-.59,4.95-.15.92-.49,3.94-1.17,10-.52,4.59-.78,6.88-.93,8.77a70.6,70.6,0,0,0-.39,9.46c.12,2-.32,4.09.11,6.07.07.34.52,2.38-.25,2.86-.25.16-.58.12-.87.44a1.54,1.54,0,0,0-.34,1c-.17,1.28-.26,1.92-.26,2a17.62,17.62,0,0,0,.71,4.77c1.08,3.25,1.31,6.72,2,10.06,1.5,6.94,2.26,10.41,2.29,10.75a48.69,48.69,0,0,0,1.39,7.86c.06.17.45,1.21.88,2.66.16.54.26.94.29,1a.84.84,0,0,1,0,.17,22.44,22.44,0,0,0-2.49-1,46.13,46.13,0,0,0-5.41-2,6.34,6.34,0,0,1-2.19-.91,4.32,4.32,0,0,1-1.15-1,4.18,4.18,0,0,1-.64-2.51,36.9,36.9,0,0,0-.35-5.47c-.2-1.2-1-2.54-2.54-5.24a30.78,30.78,0,0,1-2.74-5.18,7.55,7.55,0,0,1-.63-2.42c-.07-1.16.23-1.57-.08-2.52a2.46,2.46,0,0,0-1.24-1.64,1.9,1.9,0,0,0-1.37,0,2.42,2.42,0,0,0-1.18,1.18,6,6,0,0,0-.71,1.66,12.59,12.59,0,0,0-.44,3.38,12.89,12.89,0,0,0,.42,2.91c.22.77.38,1,.65,2.12.07.31.16.8.33,1.8s.17,1.11.06,1.19-.82-.58-1.87-1.08a7.63,7.63,0,0,0-2.62-.52,19.57,19.57,0,0,0-3.59-.25,5.77,5.77,0,0,0-3.41,1.22,2.68,2.68,0,0,0-1,1.33c-.16.65.1,1.05-.2,1.42s-.59.15-1.14.47a2.41,2.41,0,0,0-1.09,1.47c-.18.83.31,1.32,0,1.72s-.58.08-1,.35-.51,1-.63,2.31a3.94,3.94,0,0,0,.11,2.17c.21.39.41.48.46.85s-.23.67-.53,1.37.39,3.18.39,3.18c.24.22.41.29.46.51s-.31.54-.39.95c-.11.57,2.44,2.44,2.91,2.57a34.8,34.8,0,0,1,4.54,1.68c1.85.77,1.59.92,4,2a13.81,13.81,0,0,0,3.65,1.27c1.05.14,1.41,0,3.33.17a15.61,15.61,0,0,1,2.2.3,8.87,8.87,0,0,1,3.5,1.85c1.14.9-.83-.86,7.43,4.47,6.06,3.91,9.25,6,12.12,8.14a3,3,0,0,1,0,.45,23.32,23.32,0,0,1-.67,4.69,40.34,40.34,0,0,1-1,4.34,27.26,27.26,0,0,1-1.37,3.3c-1.2,2.55-1.55,2.65-2,4.09a13.14,13.14,0,0,0-.51,3.47,14.63,14.63,0,0,0,.27,3.9,15.43,15.43,0,0,0,.71,2.26,14.43,14.43,0,0,1,.37,6c-.33,5.21.37,4.64,0,9.81-.25,3.83-.64,4.28-.73,7.12l-.18-.17c-.31-.33-.27-.49-.51-.61S0,597,0,597Zm-286.06-273c0-.2,0-.4,0-.6.07-.52.07-1.07.1-1.58a13.1,13.1,0,0,1,.31-1.94c.27-1.28.44-1.6.66-2.88.07-.39.1-.59.12-.77.13-1.32.19-2,.19-2a.48.48,0,0,1,.13-.35.43.43,0,0,1,.28-.07,3.2,3.2,0,0,0,.8-.21,1.92,1.92,0,0,0,.6-.38,3.31,3.31,0,0,0,.65-1.07,7.38,7.38,0,0,0,.34-.72l.15.49c.07,4.2.42,8.4.37,12.6,0,1.2,0,2.19,0,3.06a3.88,3.88,0,0,1-.69-.33,11,11,0,0,1-1.32-1,15.74,15.74,0,0,0-1.39-1.1,2.91,2.91,0,0,0-.91-.51c-.16,0-.35,0-.44-.18S1031.23,319.38,1031.26,319.14Zm-32.18,36.31c-.07-.48.09-.67,0-1.63a6.76,6.76,0,0,0-.37-1.69c-.4-1.07-.75-1-1.33-2.24s-.25-1.2-.75-1.87c-.35-.48-.78-.82-.66-1.27,0-.22.17-.25.36-.61a2.46,2.46,0,0,0,.29-1,14,14,0,0,0,0-3.27c0-.23-.06-1.08-.11-2.71h0c.63-.11,1.19-.15,1.19-.15.81-.05,1.19,0,1.55-.25.13-.1.27-.25.36-.21s.07.17.08.39,0,.27.08.64c.07.85,0,1.78,0,1.78a19.4,19.4,0,0,0,.08,2.24c.13,1.77.45,2.22.62,3.58.2,1.56-.12,1.76-.15,3.75,0,1.8.23,1.62.88,6.91C1000.26,356.91,999.23,356.58,999.08,355.45ZM995,319.25c.35-1.79,1-1.87,1.75-4.13s.34-2.84.86-5.17,1-2.16,2.44-5.74a62.19,62.19,0,0,0,2.32-7.59c.78-3.08.74-3.68,1.55-5,.45-.74.95-1.36,3.81-4.05,2.17-2.05,3.26-3.07,4.79-4.38,1.93-1.65,3.07-2.51,4.07-3.26a10.81,10.81,0,0,0,1.14.86c1,.66,1.44.73,2,1.33a4.05,4.05,0,0,1,.67,1.61c.34.94.79,1.29,1.89,2.59.53.63,0,0,3,4.1l.73,1a10.17,10.17,0,0,0-4.76,1.12,8.3,8.3,0,0,0-2.69,1.69,7.19,7.19,0,0,0-1.93,3.48,17.71,17.71,0,0,0-.2,2.21c0,.53,0,.8,0,1s0,.48,0,.72,0,.55-.12.65-.12.05-.19.13a.35.35,0,0,0-.08.22c0,.08,0,.17.17.47a2.62,2.62,0,0,1,.22.4,1.09,1.09,0,0,1,0,.42c0,.38,0,.77,0,1.15,0,.66-.08,1.36-.09,1.66a10.65,10.65,0,0,0,.07,2.18,5.85,5.85,0,0,0,.47,1.81c.23.5.68,1.26.82,1.5s.24.49.39.72a1.49,1.49,0,0,1,.25.57,1.57,1.57,0,0,1,0,.34c0,.48,0,.4,0,.76a11.54,11.54,0,0,1-.14,1.91,4.75,4.75,0,0,1-.31,1.23,4.56,4.56,0,0,1-.94,1.3,2.79,2.79,0,0,1-.82.58.68.68,0,0,1-.24.05,1,1,0,0,1-.4-.13,1.63,1.63,0,0,0-.43-.05,3.69,3.69,0,0,0-1.28.21,23.54,23.54,0,0,1-2.85.52,13.73,13.73,0,0,1-3.31.27,10.87,10.87,0,0,1-1.87-.22,8.62,8.62,0,0,0-2-.35,3.94,3.94,0,0,0-1.21.13,4.08,4.08,0,0,0-1.09.52,14.75,14.75,0,0,0-1.54,1.11,11.22,11.22,0,0,1-2.37,1.19,21.34,21.34,0,0,0-2.36,1.31v-.1C995.13,320.94,994.72,320.75,995,319.25ZM865.07,381c0,1.53-.11,2.21-.13,2.84h-1.19c0-1.56,0-3.68.14-6l1.14.69C865.06,379.33,865.09,379.92,865.07,381Zm4-40.09-10.15-6.83a21.3,21.3,0,0,0-1.35-3.46,35.18,35.18,0,0,1-2-7.66l.15-.05a2.72,2.72,0,0,1,2.07-.16,2.49,2.49,0,0,1,1.08,1.11c.38.68-.11-.41,3.77,4.25a67.15,67.15,0,0,1,4.3,5.41,16.57,16.57,0,0,1,2.49,6.21,14.13,14.13,0,0,1,.16,1.54Zm54.42-13.52a28.44,28.44,0,0,1,2.2-5.38,12,12,0,0,1,2-2.67,7.76,7.76,0,0,1,1.85-1.42,6.12,6.12,0,0,1,.75-.33,26,26,0,0,1-.39,4.25c-.38,2.27-.74,2.59-.82,4.52s.28,2.62-.08,4.44c-.29,1.44-.57,1.37-.92,3.15a8.64,8.64,0,0,0-.18,3.68,10.53,10.53,0,0,1,.39,1.73,10.28,10.28,0,0,1-.13,2.42c-.15.78-.34,1.19,0,1.66.12.19.2.2.74.64a5.45,5.45,0,0,1,1.43,1.37,1.9,1.9,0,0,1-.19,1.65c-.85,1.82-1,3.81-1.55,5.7-.78,2.53-.63,2.33-1.36,4.61-.6,1.9-1.12,3.34-1.26,3.71-1.24,3.42-1.58,3.75-2,5.34a15.8,15.8,0,0,0-.56,3.93,7.91,7.91,0,0,0-1.23-3.23,6.21,6.21,0,0,0-1.66-1.7,14.87,14.87,0,0,1-1.22-.86c-.45-.34-.68-.54-.76-.85a1.3,1.3,0,0,1,.12-.84s.06-.15.7-2.18c.41-1.32-.22-1.49.06-3.39.18-1.25.47-1.31.46-2.31a7.9,7.9,0,0,0-.47-2.26c-.26-1-.46-1.94-.7-2.91-.41-1.61-.23-3.25.32-6.6.88-5.28,1.31-7.93,2-10C922,330.46,922.28,330.82,923.45,327.42Zm-70.23-49.11c.54-2.94,1-3.17,1.4-6,.33-2.4.08-2.92.14-7.09.06-3.75.28-4.11.37-7.1.66-.37,1.59-.9,3-1.71,5.71-3.36,8.57-5,9.81-6.19a17.28,17.28,0,0,1,4.09-3.07,30.9,30.9,0,0,1,3.12-1.35c2-.78,3.55-1.24,3.84-1.33a41.09,41.09,0,0,0,8-3.79c.4.79.82,1.66,1.29,2.6.92,1.87,1.92,3.93,3.56,6.69.57,1,1.05,1.74,1.48,2.42,0,0,2.09,3.33,4.34,6.52,4.1,5.81,11,13.7,18.92,22.85,2.43,2.82,2.55,3,3.15,3.62a32.32,32.32,0,0,1,3.05,3.46,6.78,6.78,0,0,1,.4.66l-.55-.1a15.77,15.77,0,0,0-3.2-.14c-3.17,0-2.9.15-4.54.09a20.19,20.19,0,0,0-2.68,0c-.47,0-1.13.13-1.68.22a6.29,6.29,0,0,0-1,.19c-.09,0-.24.13-.35.07s-.12-.24-.13-.35a5.74,5.74,0,0,1-.05-1.07,16.94,16.94,0,0,1,0-2,17,17,0,0,0,0-2.35,2,2,0,0,0-.44-1.34.92.92,0,0,0-.7-.33c-.31.05-.53.39-.6.49a3.82,3.82,0,0,1-.27.41c-.11.15-.17.23-.22.22s-.15-.68-.17-1a15,15,0,0,0-.48-2.38,24.88,24.88,0,0,1-.33-2.63,11.75,11.75,0,0,0-2.48-5.94,10.38,10.38,0,0,0-6.24-3.2,15.57,15.57,0,0,0-7.78.48,12.7,12.7,0,0,0-5.09,2.29,12.41,12.41,0,0,0-3.57,4.71,9,9,0,0,0-1,3.85,9.2,9.2,0,0,0,.55,3.28c.59,1.56.94,2.27.94,2.27a8.15,8.15,0,0,1,.34.83c.08.24.08.3.18.58s.14.33.13.44c0,.28-.29.34-.42.58s0,.62.37,1.39c.15.33.37.92.82,2.09.07.18.22.57.37,1.09a7.13,7.13,0,0,1,.18.79,1.78,1.78,0,0,1,0,1.14c-.18.34-.61.42-1.11.47a12.23,12.23,0,0,1-3.28-.25c-.64-.11-1.21-.15-2.36-.24-.93-.07-2.28-.06-4.95,0-1.41,0-2.18,0-3.22.12-.73.07-1.09.1-1.54.18-1.17.2-3.54.61-5,2.39a13.93,13.93,0,0,0-1.13,1.7,7.66,7.66,0,0,0-.7,1.36,11.58,11.58,0,0,0-.36,1.49c-.17.84-.17,1.11-.39,1.24s-.53-.11-1-.15c-.73-.05-1.06.56-2.2,1.4a10.59,10.59,0,0,1-1.12.76c-.61-2.48-.55-6.3-.64-8.76-.19-4.78-1-3.93-1.22-9.06A35.2,35.2,0,0,1,853.22,278.31Zm-32.68,95.05a34.8,34.8,0,0,1,1.46-4c.58-1.31,1.21-2.49,1.92-3.78a4.45,4.45,0,0,0,.58.37c.36.18.23,2,.55,3.17s1.11,5,1.3,5.85-2.13,2.32-2.31,2.68a60.54,60.54,0,0,1-5.39,3.61c-.06-.37-.11-.72-.17-1C819.12,377.8,819.61,376.28,820.54,373.36ZM725.13,268.62V269l-.1-.22Zm-9.48,23.8c.24-.34,1-.29,1.3-.27.86.06,1,.39,1.6.35a2.32,2.32,0,0,0,1.45-1,4.52,4.52,0,0,0,.93-2.42,11.52,11.52,0,0,0,.09-2.71c-.21-2.38-.49-5.54-1.72-7.66a2.77,2.77,0,0,1-.44-1.41,2.71,2.71,0,0,1,0-.41l1.35-.47a13.29,13.29,0,0,0,3.87-1.77,5.64,5.64,0,0,0,1.16-1.09c0,.12,0,.24,0,.35.31,2.38.11,16.86-.05,27.57-1.86-1.78-2.55-3.05-4.16-3.63a2.3,2.3,0,0,1-1.32-.89c-.44-.72,0-1.4-.37-1.67s-1.51.69-2.33.33c-.34-.14-.26-.36-1-1.9C715.68,292.93,715.49,292.66,715.65,292.42ZM569.62,305c1.13-.33,1.74-.57,3.18-.95.2,1,.4,2.12.63,3.53,1,6.47,1.56,9.86,1.45,14.48a51.15,51.15,0,0,1-.5,6,11.73,11.73,0,0,1-1.77,0,4,4,0,0,1-.84-.13,3.24,3.24,0,0,0-1.18-.2,7.11,7.11,0,0,1-1.56-.1c-.13,0-.4-.09-.45-.27s0-.18.08-.31a3,3,0,0,0,.1-.69c.12-1.33.18-2,.18-2.13a7,7,0,0,0-.65-2.54,20.61,20.61,0,0,0-1.42-3,37.83,37.83,0,0,0-2.77-3.94c-2.1-2.83-1.82-2.85-2.85-4.09a17,17,0,0,0-3.72-3.48C563.89,306.09,565.9,306.11,569.62,305Zm-28.71,63.28c.35.13.32.29,1.17,1.17,1.27,1.32,1.7,1.34,2.23,2.11s.29,1.08.75,2.54c.1.3.19.54.29.77a18.42,18.42,0,0,0-4.5.6,16.94,16.94,0,0,0-8.19,4.58,16.36,16.36,0,0,0-3.29,5l-6.45,0,0,0c2.21-1.28,3.18-1.35,3.6-2.45.33-.89,0-1.69.73-2.44.22-.24.4-.32,1.27-.75,1.38-.68,2.07-1,2.32-1.18a6.83,6.83,0,0,0,2.33-2.65c1.13-1.88.66-2.34,1.68-3.72a9.78,9.78,0,0,1,2.64-2.24C539.06,368.64,540,368,540.91,368.31Zm-26.23-3.22c.15-2.83,0-2.69.2-4.24a37.53,37.53,0,0,1,.76-4.49,18.49,18.49,0,0,1,1.15-3.89c.37-.85.43-.76,1-1.84s.59-1.47,1.5-3.93c0-.06.45-1.3,1.29-3.78a5,5,0,0,0,.31-1.95,4.15,4.15,0,0,0-.25-1.3c-.24-.65-.42-.63-.64-1.27s-.11-.86-.39-1.17a1.27,1.27,0,0,0-.78-.38,1.13,1.13,0,0,0-.6.1l-.09-.12c.52-1.72,1.06-3.56,1.57-5.48.68-2.54,1.74-6.83,2.38-9.36a61.12,61.12,0,0,1,2.72-7.86,10.42,10.42,0,0,1,2.31-3.69,7.29,7.29,0,0,1,3.12-2c1.72-.5,2.72.11,5.2.42a14.78,14.78,0,0,0,2.08.05,12.39,12.39,0,0,0-2.85,2.79,9.77,9.77,0,0,1-1,1,3.75,3.75,0,0,1-.36.28,11.66,11.66,0,0,1-1,.73c-.76.22-2.9,2.53-3.65,5.95a12.17,12.17,0,0,0,.27,6.12,16.51,16.51,0,0,0,3,5.46,23.14,23.14,0,0,0,1.82,2.14c1.44,1.08,2.6,2,3.39,2.58,1.48,1.13,1.68,1.49,2.31,1.74a1.49,1.49,0,0,1,.56.4,1.44,1.44,0,0,1,.25,1.38c-.21.53-.81.62-2,1.06l-2.4,1.14c-3.09,1.47-2.49,1.31-3,1.5a2.77,2.77,0,0,0-1.34.71,2.5,2.5,0,0,0-.56,1.49c-.24,2.24-.36,3.37-.48,4a8,8,0,0,1-1.33,3.46c-.56.76-.57.44-1.48,1.49a20.1,20.1,0,0,0-2.52,4c0,.05-.13.28-.29.58a18.69,18.69,0,0,1-1.23,1.94,20.76,20.76,0,0,0-1.65,3.12c-.26.61-.56,1.41-.88,1.38s-.22-.38-.46-.42-.74.65-1.16,1.27c-1,1.59-1.31,1.19-1.83,2.24a13.13,13.13,0,0,1-1.19,2.58c-.14.2-.39.51-.56.46s-.16-.25-.22-.63c-.13-.92-.2-1.37-.25-1.56-.12-.49-.22-.52-.39-1.2,0,0-.08-.32-.15-.67A11.25,11.25,0,0,1,514.68,365.09ZM399.57,267.2h.18a12,12,0,0,1,2,1.74,4.18,4.18,0,0,1,.46.65c-.75-.09-1.45-.13-2.09-.15Zm5.16,14.56a4,4,0,0,0,2.82-.25c.42.5.67.84.84.81s.16-.58-.06-1.24l.28-.19a6,6,0,0,1,.82,2,3.21,3.21,0,0,0-.85-.14,5.86,5.86,0,0,0-2.92,1.11C405.25,283.14,405.07,282.43,404.73,281.76Zm20.17,29.65c.43.15,1.08.5,2.27,2.43,1.83,3,2.05,5,4.27,9.59,1.31,2.69,1.25,4,2.13,6.47.59,1.66.82,1.7,1.32,3.26a30.51,30.51,0,0,1,.77,3l0,.16a33.57,33.57,0,0,1,.42,5.48c0,2.19.24,2,.47,6.42.13,2.31.23,4.13.24,5.68a1.56,1.56,0,0,0-.48-.37c-.64-.3-1.07,0-1.84-.08-.94-.09-1.18-.59-2.34-1.27-.64-.38-.44-.15-4.22-1.43a7.93,7.93,0,0,0-2.65-.62,12.25,12.25,0,0,0-1.55.1c-.7.09-1.42.06-2.12.18a1.29,1.29,0,0,1-.36,0c-.05-.17-.1-.35-.16-.54s0-.3,0-.45A9.82,9.82,0,0,0,421,348c-.16-1,.26-2.24.62-4.17a21.72,21.72,0,0,0,.42-3.89,9.41,9.41,0,0,0-.35-3.17,8.4,8.4,0,0,0-.92-2,15.13,15.13,0,0,0-1.58-1.83c-1.71-1.84-1.7-1.86-2-2.16-1-.9-1-.71-2-1.62-.45-.43-.86-.86-1.6-1.46-1-3.4-1-4.71-2.9-8.89a53.2,53.2,0,0,0-2.69-5.27c.53-.14,1-.26,1.41-.38l1.29-.33s2.77-.69,5.95-1.13a17.8,17.8,0,0,1,1.92-.18c.51,0,.67,0,1.18,0,.94,0,1.46-.12,2-.18A7.64,7.64,0,0,1,424.9,311.41Zm-13.65-30.78a5.09,5.09,0,0,0-.46-.87,2.89,2.89,0,0,1,1.92.36,10.59,10.59,0,0,1,3.29,3.22l-.87.44-1.12.62a15.1,15.1,0,0,0-2.27-.84l-.53-.16C411.12,282.55,411.76,282,411.25,280.63Zm1.84,4.14.18.08q-.36.21-.66.42a3.89,3.89,0,0,1-1.07-1A9.67,9.67,0,0,1,413.09,284.77Zm4.68-9.28c2.84,1.68,3.44,2.93,5.46,4.66l-1.46.66c-1.74.78-2.86,1.27-3.65,1.61-1.79-3.78-3.89-7.15-6-8.42a3.59,3.59,0,0,0-1.21-.46,9.86,9.86,0,0,0-.73-.71A22.39,22.39,0,0,1,417.77,275.49ZM410,284.06a7.25,7.25,0,0,0,1.6,1.91,13,13,0,0,1-2.5,1.4,5.53,5.53,0,0,0-1.59-1.7,5,5,0,0,1-.86-.63,6.06,6.06,0,0,1,.57-.3A6.93,6.93,0,0,1,410,284.06ZM406.8,272.3a10.9,10.9,0,0,1,2.92,1.28,13,13,0,0,0-2.66,1.39c-.22-.18-.46-.39-.7-.63.41.23.62.34.66.29s-.46-.69-1-1.14a4.44,4.44,0,0,0-.76-.52,3.29,3.29,0,0,1-.33-.76A4.59,4.59,0,0,1,406.8,272.3ZM404.57,270h0v0Zm-.59,3.13a10.63,10.63,0,0,0,2.24,2.19,3.64,3.64,0,0,1-3.29-.67,7.11,7.11,0,0,1-1.69-1.59l1.44-.37A10.5,10.5,0,0,1,404,273.15Zm-.66-10.56c0,.16,0,.31.05.48l0,.1-.3-.24A4,4,0,0,0,403.32,262.59Zm.27,5.68c-.95-1.15-1.1-1.53-1.61-1.8a10.67,10.67,0,0,0-1.21-1l.2-.17c.58.18,1.25.38,2,.58C403.27,266.67,403.33,267.45,403.59,268.27Zm-3.94-11.5a6,6,0,0,0,.05-.61l.05,0a6.73,6.73,0,0,1,2.59,2.63,6,6,0,0,1,.41,1,9.38,9.38,0,0,0-1.95.88,12.22,12.22,0,0,0-1.55-2.13A8.51,8.51,0,0,0,399.65,256.77Zm-.9-1a5.73,5.73,0,0,1-.83,1.48,24.22,24.22,0,0,0-2-1.75A7,7,0,0,1,398.75,255.73Zm-24.75-15c1.65,0,4.15.05,5.52,1.27a2.13,2.13,0,0,1,.58.8l-.4,0a21.63,21.63,0,0,1-3.13-.62,20.34,20.34,0,0,0-7-.24l-.6-.4A17.68,17.68,0,0,1,374,240.75Zm-6.33,1.19c0,.07.05.14.08.22-.42.06-.83.14-1.24.22Z" transform="translate(0 -11.24)"/></g><path class="cls-4" d="M353.41,429.13c.71-3.75.86-45.82.86-68.73V338.94c-16.48,0-36.82.72-40.54,1.29V328c5.73,1.15,39.68,1.73,41.25,1.73h12.47c2.72,0,33.95-.58,40.25-1.73v12.24c-2-.57-28.51-1.29-40.54-1.29v23.77c0,29.25,1.43,63.53,1.72,66.42Z" transform="translate(0 -11.24)"/><path class="cls-4" d="M425.75,429.13c.29-5.33.43-34,.43-37.17V378.7c0-2.16-.43-32.41-.72-35.3h13.9c-.29,2.17-.72,27.23-.72,29.39v8.94l55.16-2.31V370.2c0-2-.29-24.06-.43-26.8h13.89c-.28,2.89-1,36-1,38.9v12.25c0,1.58.29,32.27.57,34.58H493.08c.43-4.18.72-25.94.72-28.24V388.5l-55.16,2.3v7.49c0,5.48.43,27.95.58,30.84Z" transform="translate(0 -11.24)"/><path class="cls-4" d="M589.78,430.42c-4.3,0-43.55-1.29-46.13-1.29.43-6.49.43-32.71.43-35.59V377.26c0-2-.29-31.55-.43-33.86,3.15,0,37.1-1.87,43.55-2.3l.57,10.37c-5.58,0-29.08.58-31.23.58v30c2.44,0,19.06-.58,26.94-1.3l.43,10.52c-4.3,0-24.5-.44-27.37-.44v29.11c3.16,0,20.63.28,32.81-.44Z" transform="translate(0 -11.24)"/><path class="cls-4" d="M664.7,429.13c.29-6.2.72-40.92.72-51.15V362.13c0-3.31-.43-31.69-.43-33.85a195.06,195.06,0,0,1,26.93,1.87c19.2,3.17,31.23,12.39,31.23,27.66,0,19.74-18,35.73-45.27,41.21v8.5c0,2.88,0,18.58.29,21.61Zm13.18-40.2c18-3.89,31.37-13.11,31.37-29,0-4.32-2.43-20.6-31.37-21Z" transform="translate(0 -11.24)"/><path class="cls-4" d="M757.53,372.36c0,19.88,1.15,29,6,37s12.32,11.81,21.63,11.81c11.17,0,17.62-5.18,21.92-11.67,6-8.93,6.16-23.62,6.16-42.93v-4.18c0-8.5-.58-15.7-.72-20.31h13c0,2.73.14,10.8.14,20.46v5.76c0,23.48-1.72,38.32-11.46,49.7-7.74,8.94-16.9,13.11-30.8,13.11-7,0-20.63-1-29.79-14.69-6-9.08-8.6-18.73-8.6-48.41v-6.63c0-5.62.14-14.55.14-17.43h12.9c-.15,3.17-.58,8.93-.58,20.17Z" transform="translate(0 -11.24)"/><path class="cls-4" d="M870.27,343.4c-.57,2.74-1.14,26.8-1.14,42.22v33.85c3.15,0,18.62,0,32.52-.57v11.52c-4.16,0-42.84-1.29-46.13-1.29,1.14-6.49,1.14-32.71,1.14-35.59V377.26c0-2-.28-31.55-.57-33.86Z" transform="translate(0 -11.24)"/><path class="cls-4" d="M923.28,421.35c13.18-2.6,29.94-7.93,29.94-17.72,0-6.34-4.44-9.37-13.9-14C928.15,384.18,920,379,920,370.06c0-13.69,19.92-25.65,38.4-29l2.72,10.08c-8.45,1.3-27.94,6.2-27.94,16.86,0,6.63,9.31,9.94,14.9,13.11,9.89,5.47,18.48,9.36,18.48,19.59,0,12.68-14.47,25.5-40,30.69Z" transform="translate(0 -11.24)"/><path class="cls-4" d="M1041.61,430.42c-4.3,0-43.55-1.29-46.13-1.29.43-6.49.43-32.71.43-35.59V377.26c0-2-.29-31.55-.43-33.86,3.15,0,37.1-1.87,43.55-2.3l.57,10.37c-5.59,0-29.08.58-31.23.58v30c2.44,0,19.05-.58,26.93-1.3l.43,10.52c-4.3,0-24.49-.44-27.36-.44v29.11c3.15,0,20.63.28,32.81-.44Z" transform="translate(0 -11.24)"/><path class="cls-5" d="M353.41,429.13c.71-3.75.86-45.82.86-68.73V338.94c-16.48,0-36.82.72-40.54,1.29V328c5.73,1.15,39.68,1.73,41.25,1.73h12.47c2.72,0,33.95-.58,40.25-1.73v12.24c-2-.57-28.51-1.29-40.54-1.29v23.77c0,29.25,1.43,63.53,1.72,66.42Z" transform="translate(0 -11.24)"/><path class="cls-5" d="M425.75,429.13c.29-5.33.43-34,.43-37.17V378.7c0-2.16-.43-32.41-.72-35.3h13.9c-.29,2.17-.72,27.23-.72,29.39v8.94l55.16-2.31V370.2c0-2-.29-24.06-.43-26.8h13.89c-.28,2.89-1,36-1,38.9v12.25c0,1.58.29,32.27.57,34.58H493.08c.43-4.18.72-25.94.72-28.24V388.5l-55.16,2.3v7.49c0,5.48.43,27.95.58,30.84Z" transform="translate(0 -11.24)"/><path class="cls-5" d="M589.78,430.42c-4.3,0-43.55-1.29-46.13-1.29.43-6.49.43-32.71.43-35.59V377.26c0-2-.29-31.55-.43-33.86,3.15,0,37.1-1.87,43.55-2.3l.57,10.37c-5.58,0-29.08.58-31.23.58v30c2.44,0,19.06-.58,26.94-1.3l.43,10.52c-4.3,0-24.5-.44-27.37-.44v29.11c3.16,0,20.63.28,32.81-.44Z" transform="translate(0 -11.24)"/><path class="cls-5" d="M664.7,429.13c.29-6.2.72-40.92.72-51.15V362.13c0-3.31-.43-31.69-.43-33.85a195.06,195.06,0,0,1,26.93,1.87c19.2,3.17,31.23,12.39,31.23,27.66,0,19.74-18,35.73-45.27,41.21v8.5c0,2.88,0,18.58.29,21.61Zm13.18-40.2c18-3.89,31.37-13.11,31.37-29,0-4.32-2.43-20.6-31.37-21Z" transform="translate(0 -11.24)"/><path class="cls-5" d="M757.53,372.36c0,19.88,1.15,29,6,37s12.32,11.81,21.63,11.81c11.17,0,17.62-5.18,21.92-11.67,6-8.93,6.16-23.62,6.16-42.93v-4.18c0-8.5-.58-15.7-.72-20.31h13c0,2.73.14,10.8.14,20.46v5.76c0,23.48-1.72,38.32-11.46,49.7-7.74,8.94-16.9,13.11-30.8,13.11-7,0-20.63-1-29.79-14.69-6-9.08-8.6-18.73-8.6-48.41v-6.63c0-5.62.14-14.55.14-17.43h12.9c-.15,3.17-.58,8.93-.58,20.17Z" transform="translate(0 -11.24)"/><path class="cls-5" d="M870.27,343.4c-.57,2.74-1.14,26.8-1.14,42.22v33.85c3.15,0,18.62,0,32.52-.57v11.52c-4.16,0-42.84-1.29-46.13-1.29,1.14-6.49,1.14-32.71,1.14-35.59V377.26c0-2-.28-31.55-.57-33.86Z" transform="translate(0 -11.24)"/><path class="cls-5" d="M923.28,421.35c13.18-2.6,29.94-7.93,29.94-17.72,0-6.34-4.44-9.37-13.9-14C928.15,384.18,920,379,920,370.06c0-13.69,19.92-25.65,38.4-29l2.72,10.08c-8.45,1.3-27.94,6.2-27.94,16.86,0,6.63,9.31,9.94,14.9,13.11,9.89,5.47,18.48,9.36,18.48,19.59,0,12.68-14.47,25.5-40,30.69Z" transform="translate(0 -11.24)"/><path class="cls-5" d="M1041.61,430.42c-4.3,0-43.55-1.29-46.13-1.29.43-6.49.43-32.71.43-35.59V377.26c0-2-.29-31.55-.43-33.86,3.15,0,37.1-1.87,43.55-2.3l.57,10.37c-5.59,0-29.08.58-31.23.58v30c2.44,0,19.05-.58,26.93-1.3l.43,10.52c-4.3,0-24.49-.44-27.36-.44v29.11c3.15,0,20.63.28,32.81-.44Z" transform="translate(0 -11.24)"/><path class="cls-3" d="M298.83,521c0-2.09.14-13.83.14-17.29v-5.36c0-1.12-.14-11.2-.14-11.94,9.3,0,15.24.25,19.29,1.22,4.87,1.22,9.16,4.09,9.16,9.6,0,6.33-5.9,13.2-17.69,15.15v1.31c0,1,0,6.29.1,7.31Zm10.76-15.49c2.83-.44,6.63-2.87,6.63-6.92,0-2.72-1.42-5-6.63-5.36Z" transform="translate(0 -11.24)"/><path class="cls-3" d="M342.28,501.84c0,6.62.29,9.45,2,11.3a4.44,4.44,0,0,0,3.41,1.36,4.21,4.21,0,0,0,3.61-1.8c1.22-1.7,1.26-3.26,1.26-12.66v-1.56c0-2.88-.19-5.75-.24-7.26H363c0,.92.05,4,.05,7.31v1.94c0,7.94-.54,12.77-3.85,16.57-2.68,3.07-7.21,4.67-12.13,4.67-3.61,0-9.26-.53-12.57-5.21-2.14-3-3-6.09-3-16.12v-2.24c0-1.9.05-5.36.05-6.29h10.91a66.33,66.33,0,0,0-.24,7.21Z" transform="translate(0 -11.24)"/><path class="cls-3" d="M370.62,501.11c0-1.22-.09-8.62-.19-9.5a116.55,116.55,0,0,1,14.42.49c9.21,1.12,10.47,4.53,10.47,6.86,0,1.51-1.31,4.63-6,6.14v.25c3.46.24,7.41,2.43,7.41,6.43,0,4.77-6.14,9.5-21.34,9.5h-4.92c.19-2.29.19-14.76.19-15.59Zm9.75,2.77a4.55,4.55,0,0,0,4.72-4.48c0-2.73-3.12-3.07-4.72-2.92Zm0,12.13c2.68,0,5.84-1.65,5.84-4,0-2.73-2.48-3.9-5.84-3.7Z" transform="translate(0 -11.24)"/><path class="cls-3" d="M414,491.61c0,1-.25,9.5-.25,14.71v7.26c1.07,0,6.29,0,9.84-.2l.05,8.09c-1.31,0-16.71-.44-20.51-.44.1-2.19.1-11.06.1-12v-5.51c0-.68-.1-11.05-.15-11.88Z" transform="translate(0 -11.24)"/><path class="cls-3" d="M439.6,508.51c0,4.14.14,11.55.19,12.52H429c0-1.8.1-11.49.1-12.57V504c0-.73-.1-11.35-.1-12.37h10.81c-.05.78-.19,7.45-.19,12.42Z" transform="translate(0 -11.24)"/><path class="cls-3" d="M470.77,521.37a39.21,39.21,0,0,1-5.26.34c-14.51,0-20.07-6.72-20.07-12.47,0-6.87,6.87-15.54,22.17-18.27l1.95,8.19c-9.06,1.51-12.77,5.16-12.77,9,0,3.22,3.36,5.51,9.26,5.51,1.8,0,3.21-.1,4.29-.2Z" transform="translate(0 -11.24)"/><path class="cls-3" d="M484.85,517.43c1.46-2.49,14.95-25.33,19.68-32.79H505c5.84,8.82,19,29.43,21,32.2l-9.64,5.7L512,515l-14.66.83c-.39.68-2.14,4.48-3.22,6.77Zm23.82-9.26c-1.36-2.78-3.22-6.23-4.09-8.23-1.17,2.34-2.88,5.94-4.14,8.67Z" transform="translate(0 -11.24)"/><path class="cls-3" d="M530.44,521c.15-2.19.15-11.06.15-12v-5.51c0-.68-.1-10.66-.15-11.88,3.9,0,15-.44,20-.59l.2,7.12-9.75.19v6c1,0,4-.19,8.92-.39l.1,6.87-9-.1V514c0,.68.05,6.43.05,7Z" transform="translate(0 -11.24)"/><path class="cls-3" d="M557.28,521c.15-2.19.15-11.06.15-12v-5.51c0-.68-.1-10.66-.15-11.88,3.9,0,15.05-.44,20-.59l.2,7.12-9.75.19v6c1,0,4-.19,8.92-.39l.1,6.87-9-.1V514c0,.68,0,6.43,0,7Z" transform="translate(0 -11.24)"/><path class="cls-3" d="M578.57,518c1.31-2.09,13.2-21.53,17.68-27.86h.93c5.4,7.5,17,25,18.85,27.38l-9,4.92c-1.31-2-3.55-5.75-3.89-6.24l-13,.63c-.24.39-1.85,3.71-2.83,5.65Zm21.63-7.84c-1.22-2.39-2.83-5.12-3.66-6.82-1,2-2.53,4.87-3.65,7.16Z" transform="translate(0 -11.24)"/><path class="cls-3" d="M631,508.51c0,4.14.14,11.55.19,12.52H620.41c.05-1.8.1-11.49.1-12.57V504c0-.73-.1-11.35-.1-12.37h10.81c-.05.78-.19,7.45-.19,12.42Z" transform="translate(0 -11.24)"/><path class="cls-3" d="M650.37,508.37c0,1.56.09,12,.19,12.66H640.09c.19-1,.14-10.76.14-11.64v-6.72c0-1.27-.09-10.23-.19-11.06,6.23,0,12.42-.05,16.66.49,6.53.82,10.08,3.31,10.08,7.11,0,3.46-2,6.09-5.55,8.28,1.31,1.41,7.74,7.36,8.91,8.67l-8.67,6.28-10.33-15c2.29-1.12,4.88-3.17,4.88-6.23,0-1.95-1.27-3.56-5.65-3.61Z" transform="translate(0 -11.24)"/><path class="cls-3" d="M672.58,514.46c4.77.09,9.79-.69,9.79-2.68,0-.93-.88-1.51-4.53-3.12-2.83-1.27-6.53-3.27-6.53-7.16,0-5.12,7.16-10.14,18.9-10.77l1.17,7.5c-6,0-9.11.39-9.11,2.15,0,1.07,1.61,1.65,4.48,2.77,2.39.93,6.68,2.68,6.68,6.82,0,5.07-5.8,10.82-19.73,11.89Z" transform="translate(0 -11.24)"/><path class="cls-3" d="M736.24,521.42a46,46,0,0,1-5.75.39c-16,0-21.87-8.13-21.87-14.66,0-8.09,7.36-17.88,24.16-21.48l2.15,9.35c-10.28,1.85-14.42,6.33-14.42,10.91,0,3.75,4.09,6.82,10.57,6.82,1.95,0,3.51-.15,4.68-.24Z" transform="translate(0 -11.24)"/><path class="cls-3" d="M739.65,507.54c0-8,6.19-16.57,19.29-16.57,10.62,0,17.15,5.46,17.15,14.57,0,6.24-4.39,16.17-19.29,16.17C744.91,521.71,739.65,514.16,739.65,507.54Zm25.09-1.71c0-5.26-2.34-8.13-6.38-8.13-4.78,0-7.36,4.24-7.36,9.2,0,5.46,2.87,8.09,6.28,8.09C761.82,515,764.74,511.92,764.74,505.83Z" transform="translate(0 -11.24)"/><path class="cls-3" d="M781,521c.29-2.92,1.36-24.16,1.8-29.67l.78-.24c6.23,4,19.82,13.54,20.75,14.52,0-2.24-.1-12.42,0-14.23l9.55.2c-.59,6-1.61,24.11-1.85,30.06l-.78.19c-4.48-2.68-18.85-13.1-20.66-14.57,0,2.15,0,12.82,0,14Z" transform="translate(0 -11.24)"/><path class="cls-3" d="M819.49,514.46c4.77.09,9.79-.69,9.79-2.68,0-.93-.88-1.51-4.53-3.12-2.83-1.27-6.53-3.27-6.53-7.16,0-5.12,7.16-10.14,18.9-10.77l1.17,7.5c-6,0-9.11.39-9.11,2.15,0,1.07,1.61,1.65,4.48,2.77,2.39.93,6.68,2.68,6.68,6.82,0,5.07-5.8,10.82-19.73,11.89Z" transform="translate(0 -11.24)"/><path class="cls-3" d="M855.39,501.84c0,6.62.29,9.45,2,11.3a4.44,4.44,0,0,0,3.41,1.36,4.21,4.21,0,0,0,3.61-1.8c1.22-1.7,1.26-3.26,1.26-12.66v-1.56c0-2.88-.19-5.75-.24-7.26h10.72c0,.92.05,4,.05,7.31v1.94c0,7.94-.54,12.77-3.85,16.57-2.68,3.07-7.21,4.67-12.13,4.67-3.61,0-9.26-.53-12.57-5.21-2.14-3-3-6.09-3-16.12v-2.24c0-1.9.05-5.36.05-6.29h10.91a66.33,66.33,0,0,0-.24,7.21Z" transform="translate(0 -11.24)"/><path class="cls-3" d="M894.6,491.61c-.05,1-.25,9.5-.25,14.71v7.26c1.07,0,6.29,0,9.84-.2l0,8.09c-1.31,0-16.71-.44-20.51-.44.1-2.19.1-11.06.1-12v-5.51c0-.68-.1-11.05-.15-11.88Z" transform="translate(0 -11.24)"/><path class="cls-3" d="M913.11,521c0-1.07.09-7,.09-11.45V499.11c-1.8,0-8.13.2-9.49.24v-7.64c2,.19,12.51.34,13,.34h3.85c.83,0,10.52-.15,12.67-.34v7.64c-.83,0-9-.24-9.45-.24v11.11c0,4.28,0,10,.14,10.81Z" transform="translate(0 -11.24)"/><path class="cls-3" d="M931,518c1.32-2.09,13.2-21.53,17.69-27.86h.92c5.41,7.5,17,25,18.86,27.38l-9,4.92c-1.31-2-3.55-5.75-3.9-6.24l-13,.63c-.25.39-1.85,3.71-2.83,5.65Zm21.63-7.84c-1.22-2.39-2.82-5.12-3.65-6.82-1,2-2.53,4.87-3.65,7.16Z" transform="translate(0 -11.24)"/><path class="cls-3" d="M971.41,521c.3-2.92,1.37-24.16,1.81-29.67l.77-.24c6.24,4,19.83,13.54,20.76,14.52,0-2.24-.1-12.42,0-14.23l9.55.2c-.59,6-1.61,24.11-1.85,30.06l-.78.19c-4.49-2.68-18.86-13.1-20.66-14.57,0,2.15,0,12.82,0,14Z" transform="translate(0 -11.24)"/><path class="cls-3" d="M1034.15,521.37a39.33,39.33,0,0,1-5.26.34c-14.52,0-20.07-6.72-20.07-12.47,0-6.87,6.87-15.54,22.17-18.27l2,8.19c-9.07,1.51-12.77,5.16-12.77,9,0,3.22,3.36,5.51,9.26,5.51,1.8,0,3.21-.1,4.28-.2Z" transform="translate(0 -11.24)"/><path class="cls-3" d="M1046.62,521c.05-1,.25-5.36.25-5.89v-1.71c0-5.36-2.29-9.2-5.56-11.3a16.48,16.48,0,0,0-5-1.85l3.41-9.45a21,21,0,0,1,8.38,4.33,17.27,17.27,0,0,1,4.24,7.07h.34a17.37,17.37,0,0,1,4.82-7,20.86,20.86,0,0,1,8.43-4.48l2.78,9.5A17.29,17.29,0,0,0,1062,503a12.7,12.7,0,0,0-4.63,10.33v2.58c0,.58.1,4.28.19,5.11Z" transform="translate(0 -11.24)"/><path class="cls-6" d="M319.71,566.72c0,1.48.07,4.95.07,5.76a37.11,37.11,0,0,1-8.61.9c-11.34-.16-16.1-5.46-16.1-11.57,0-4.76,4.14-13.92,20.11-17.43L317,552c-5.26.71-12.71,4-12.71,9.36,0,3.27,3,4.87,5.65,5.22a8.58,8.58,0,0,0,1.41.08l0-3.12c0-1.13-.08-2.18-.08-3.27h8.45c0,1.52,0,2.41,0,3.58Z" transform="translate(0 -11.24)"/><path class="cls-6" d="M334.39,562.62c0,1.25.08,9.63.16,10.14h-8.38c.16-.78.12-8.62.12-9.32v-5.38c0-1-.08-8.18-.16-8.84a123.48,123.48,0,0,1,13.33.39c5.22.66,8.07,2.65,8.07,5.69,0,2.76-1.6,4.87-4.44,6.62,1.05,1.13,6.19,5.89,7.13,6.94l-6.94,5-8.26-12c1.83-.89,3.9-2.53,3.9-5,0-1.56-1-2.85-4.53-2.89Z" transform="translate(0 -11.24)"/><path class="cls-6" d="M350,570.3c1.05-1.67,10.56-17.22,14.15-22.29h.74c4.32,6,13.6,20,15.08,21.9l-7.17,3.94c-1.05-1.6-2.85-4.6-3.12-5l-10.41.51c-.19.31-1.48,3-2.26,4.52Zm17.3-6.27c-1-1.91-2.26-4.1-2.92-5.46-.82,1.6-2,3.9-2.92,5.73Z" transform="translate(0 -11.24)"/><path class="cls-6" d="M382.13,567.5c3.82.07,7.83-.55,7.83-2.15,0-.74-.7-1.21-3.62-2.49-2.26-1-5.22-2.61-5.22-5.73,0-4.09,5.72-8.11,15.12-8.61l.93,6c-4.83,0-7.29.31-7.29,1.71,0,.86,1.29,1.33,3.59,2.22,1.91.74,5.34,2.15,5.34,5.46,0,4.05-4.64,8.65-15.79,9.51Z" transform="translate(0 -11.24)"/><path class="cls-6" d="M402,567.5c3.82.07,7.84-.55,7.84-2.15,0-.74-.71-1.21-3.63-2.49-2.26-1-5.22-2.61-5.22-5.73,0-4.09,5.73-8.11,15.12-8.61l.94,6c-4.84,0-7.29.31-7.29,1.71,0,.86,1.28,1.33,3.58,2.22,1.91.74,5.34,2.15,5.34,5.46,0,4.05-4.64,8.65-15.78,9.51Z" transform="translate(0 -11.24)"/><path class="cls-6" d="M431.58,562.62c0,1.25.08,9.63.16,10.14h-8.38c.15-.78.11-8.62.11-9.32v-5.38c0-1-.07-8.18-.15-8.84a123.48,123.48,0,0,1,13.33.39c5.22.66,8.06,2.65,8.06,5.69,0,2.76-1.59,4.87-4.44,6.62,1.05,1.13,6.2,5.89,7.13,6.94l-6.93,5-8.27-12c1.84-.89,3.9-2.53,3.9-5,0-1.56-1-2.85-4.52-2.89Z" transform="translate(0 -11.24)"/><path class="cls-6" d="M448.69,562c0-6.39,4.94-13.25,15.43-13.25,8.49,0,13.72,4.37,13.72,11.65,0,5-3.51,12.94-15.44,12.94C452.89,573.3,448.69,567.26,448.69,562Zm20.07-1.36c0-4.21-1.87-6.51-5.11-6.51-3.82,0-5.88,3.39-5.88,7.36,0,4.37,2.3,6.47,5,6.47C466.42,567.92,468.76,565.47,468.76,560.6Z" transform="translate(0 -11.24)"/><path class="cls-6" d="M480.83,562c0-6.39,4.95-13.25,15.44-13.25,8.49,0,13.72,4.37,13.72,11.65,0,5-3.51,12.94-15.44,12.94C485,573.3,480.83,567.26,480.83,562Zm20.08-1.36c0-4.21-1.88-6.51-5.11-6.51-3.82,0-5.89,3.39-5.89,7.36,0,4.37,2.3,6.47,5,6.47C498.57,567.92,500.91,565.47,500.91,560.6Z" transform="translate(0 -11.24)"/><path class="cls-6" d="M518.91,572.76c0-.86.07-5.58.07-9.16v-8.38c-1.44,0-6.5.16-7.6.19V549.3c1.6.15,10,.27,10.41.27h3.08c.66,0,8.42-.12,10.13-.27v6.11c-.66,0-7.21-.19-7.56-.19v8.88c0,3.43,0,8,.12,8.66Z" transform="translate(0 -11.24)"/><path class="cls-6" d="M537.07,567.5c3.81.07,7.83-.55,7.83-2.15,0-.74-.7-1.21-3.63-2.49-2.26-1-5.22-2.61-5.22-5.73,0-4.09,5.73-8.11,15.12-8.61l.94,6c-4.83,0-7.29.31-7.29,1.71,0,.86,1.29,1.33,3.59,2.22,1.91.74,5.34,2.15,5.34,5.46,0,4.05-4.64,8.65-15.79,9.51Z" transform="translate(0 -11.24)"/><path class="cls-6" d="M567.34,566.72h6.47v6h-6.47Z" transform="translate(0 -11.24)"/><path class="cls-6" d="M586.36,569.87c1.17-2,12-20.26,15.74-26.23h.39c4.68,7.06,15.16,23.54,16.8,25.77L611.57,574l-3.5-6-11.73.67c-.32.54-1.72,3.58-2.58,5.41Zm19.06-7.4c-1.09-2.22-2.57-5-3.28-6.59-.93,1.87-2.3,4.76-3.31,6.94Z" transform="translate(0 -11.24)"/><path class="cls-6" d="M621.66,572.76c.24-2.34,1.1-19.33,1.45-23.74l.62-.19c5,3.23,15.86,10.83,16.6,11.61,0-1.79-.08-9.94,0-11.38l7.64.16c-.47,4.79-1.28,19.29-1.48,24l-.62.16c-3.59-2.14-15.09-10.48-16.53-11.65,0,1.71,0,10.25,0,11.22Z" transform="translate(0 -11.24)"/><path class="cls-6" d="M650.34,570.3c1.06-1.67,10.57-17.22,14.15-22.29h.74c4.33,6,13.6,20,15.08,21.9l-7.17,3.94c-1-1.6-2.84-4.6-3.11-5l-10.41.51c-.19.31-1.48,3-2.26,4.52ZM667.65,564c-1-1.91-2.26-4.1-2.92-5.46-.82,1.6-2,3.9-2.93,5.73Z" transform="translate(0 -11.24)"/><path class="cls-6" d="M692.59,549.22c0,.78-.2,7.6-.2,11.77v5.8c.86,0,5,0,7.87-.15l0,6.47c-1,0-13.36-.35-16.4-.35.07-1.76.07-8.85.07-9.63v-4.4c0-.55-.07-8.85-.11-9.51Z" transform="translate(0 -11.24)"/><path class="cls-6" d="M707.71,572.76c0-.78.19-4.29.19-4.72v-1.36c0-4.29-1.83-7.37-4.44-9a13.42,13.42,0,0,0-4-1.49l2.73-7.56a17,17,0,0,1,6.71,3.47,14,14,0,0,1,3.39,5.65h.27a13.79,13.79,0,0,1,3.86-5.61,16.54,16.54,0,0,1,6.74-3.58l2.22,7.6a13.82,13.82,0,0,0-5.38,2.22,10.16,10.16,0,0,0-3.7,8.26v2.06c0,.47.08,3.43.16,4.1Z" transform="translate(0 -11.24)"/><path class="cls-6" d="M734.48,572.76c0-.86.08-5.58.08-9.16v-8.38c-1.45,0-6.51.16-7.6.19V549.3c1.59.15,10,.27,10.4.27h3.08c.66,0,8.42-.12,10.13-.27v6.11c-.66,0-7.21-.19-7.56-.19v8.88c0,3.43,0,8,.12,8.66Z" transform="translate(0 -11.24)"/><path class="cls-6" d="M762.5,562.74c0,3.31.11,9.24.15,10H754c0-1.45.08-9.2.08-10.06v-3.58c0-.59-.08-9.08-.08-9.9h8.65c0,.62-.15,6-.15,9.94Z" transform="translate(0 -11.24)"/><path class="cls-6" d="M787.44,573a31.67,31.67,0,0,1-4.21.27c-11.62,0-16.06-5.38-16.06-10,0-5.5,5.5-12.44,17.73-14.62l1.56,6.55c-7.25,1.21-10.21,4.13-10.21,7.21,0,2.57,2.69,4.4,7.41,4.4,1.44,0,2.57-.08,3.42-.15Z" transform="translate(0 -11.24)"/><path class="cls-6" d="M791.1,567.5c3.82.07,7.83-.55,7.83-2.15,0-.74-.7-1.21-3.62-2.49-2.26-1-5.23-2.61-5.23-5.73,0-4.09,5.73-8.11,15.12-8.61l.94,6c-4.83,0-7.29.31-7.29,1.71,0,.86,1.29,1.33,3.59,2.22,1.91.74,5.34,2.15,5.34,5.46,0,4.05-4.64,8.65-15.79,9.51Z" transform="translate(0 -11.24)"/><path class="cls-6" d="M821.38,566.72h6.46v6h-6.46Z" transform="translate(0 -11.24)"/><path class="cls-6" d="M843,566.79c3.78.12,7.91-.93,7.91-2.76,0-.78-.66-1.25-3.81-3-2.46-1.41-5.3-3.35-5.3-6.63,0-4.36,5.8-9,15.66-9.9l1.05,6.51c-4.87,0-7.32.74-7.32,2.34,0,.93,1.24,1.52,3.78,2.77,2.06,1,5.42,2.76,5.42,6.27,0,4.29-4.49,9.74-16.33,11.11Z" transform="translate(0 -11.24)"/><path class="cls-6" d="M869.11,572.76c0-.86.08-5.58.08-9.16v-8.38c-1.44,0-6.51.16-7.6.19V549.3c1.6.15,10,.27,10.41.27h3.07c.67,0,8.42-.12,10.14-.27v6.11c-.67,0-7.21-.19-7.56-.19v8.88c0,3.43,0,8,.11,8.66Z" transform="translate(0 -11.24)"/><path class="cls-6" d="M897,562.62c0,1.25.08,9.63.16,10.14h-8.38c.16-.78.12-8.62.12-9.32v-5.38c0-1-.08-8.18-.16-8.84a123.48,123.48,0,0,1,13.33.39c5.22.66,8.07,2.65,8.07,5.69,0,2.76-1.6,4.87-4.45,6.62,1.06,1.13,6.2,5.89,7.14,6.94l-6.94,5-8.26-12c1.83-.89,3.89-2.53,3.89-5,0-1.56-1-2.85-4.52-2.89Z" transform="translate(0 -11.24)"/><path class="cls-6" d="M912.6,570.3c1-1.67,10.56-17.22,14.14-22.29h.75c4.32,6,13.6,20,15.08,21.9l-7.17,3.94c-1.06-1.6-2.85-4.6-3.12-5l-10.41.51c-.19.31-1.48,3-2.26,4.52ZM929.9,564c-1-1.91-2.26-4.1-2.92-5.46-.82,1.6-2,3.9-2.92,5.73Z" transform="translate(0 -11.24)"/><path class="cls-6" d="M948.57,572.76c0-.86.07-5.58.07-9.16v-8.38c-1.44,0-6.5.16-7.59.19V549.3c1.59.15,10,.27,10.4.27h3.08c.66,0,8.42-.12,10.13-.27v6.11c-.66,0-7.21-.19-7.56-.19v8.88c0,3.43,0,8,.12,8.66Z" transform="translate(0 -11.24)"/><path class="cls-6" d="M984.46,573.11c-1.44,0-14.23-.35-16.29-.35.08-1.76.08-8.85.08-9.63v-4.4c0-.55-.08-8.54-.08-9.51,2.22,0,14.11-.47,15.59-.59l.15,5.69c-1.32,0-6.9.2-7.52.2v4c.7,0,4.79-.15,6.35-.31l.08,5.53c-.93,0-5.65-.11-6.43-.11v3.58c.9,0,6.27.08,8-.08Z" transform="translate(0 -11.24)"/><path class="cls-6" d="M1010.8,567.61c0,1.29.08,4.21.08,4.91a41.61,41.61,0,0,1-8,.78c-10.52,0-14.89-4.64-14.89-9.86,0-4.05,3.94-12.12,18.75-14.81l1.63,6.86c-5,.59-11.45,3-11.45,7.6,0,2.81,2.53,4,4.87,4.29a10.3,10.3,0,0,0,1.09,0v-2.5c0-.93-.08-1.83-.08-3h8c0,1.56,0,2.34,0,3.32Z" transform="translate(0 -11.24)"/><path class="cls-6" d="M1025.26,562.74c0,3.31.11,9.24.15,10h-8.65c0-1.45.08-9.2.08-10.06v-3.58c0-.59-.08-9.08-.08-9.9h8.65c0,.62-.15,6-.15,9.94Z" transform="translate(0 -11.24)"/><path class="cls-6" d="M1048.75,573.11c-1.44,0-14.22-.35-16.29-.35.08-1.76.08-8.85.08-9.63v-4.4c0-.55-.08-8.54-.08-9.51,2.23,0,14.11-.47,15.59-.59l.16,5.69c-1.33,0-6.9.2-7.52.2v4c.7,0,4.79-.15,6.35-.31l.08,5.53c-.94,0-5.65-.11-6.43-.11v3.58c.89,0,6.27.08,8-.08Z" transform="translate(0 -11.24)"/><path class="cls-6" d="M1053.19,567.5c3.82.07,7.84-.55,7.84-2.15,0-.74-.7-1.21-3.63-2.49-2.26-1-5.22-2.61-5.22-5.73,0-4.09,5.73-8.11,15.12-8.61l.94,6c-4.83,0-7.29.31-7.29,1.71,0,.86,1.29,1.33,3.59,2.22,1.91.74,5.33,2.15,5.33,5.46,0,4.05-4.63,8.65-15.78,9.51Z" transform="translate(0 -11.24)"/></g></g></svg>